<?xml version="1.0" encoding="utf-8"?>
<!-- Generator: Adobe Illustrator 20.1.0, SVG Export Plug-In . SVG Version: 6.00 Build 0)  -->
<svg version="1.1" id="Слой_1" xmlns="http://www.w3.org/2000/svg" xmlns:xlink="http://www.w3.org/1999/xlink" x="0px" y="0px"
	 viewBox="0 0 119.3 103.4" style="enable-background:new 0 0 119.3 103.4;" xml:space="preserve">
<style type="text/css">
	.st0{fill:#D86754;}
</style>
<path class="st0" d="M106,95.5c-7.1-2.7-14.5-4.7-21.5-7.7c-9.8-4.1-9.7-4.4-8.9-15c0.1-1.3,0-3.8,0.5-5c1.6-3.8,3.9-6.3,5.5-10.1
	c0.5-1.2,0.7-2.8,1.6-3.5c5.5-4.4,5.5-13.5,3.4-15.9c-2.5-2.8-1.2-6.8-0.9-10.3C86.9,11.6,76.4-0.1,61.2,0c-1.6,0-3.2,0.2-4.9,0.4
	c-12.1,2-24,11.9-21.9,27.9c0.4,3.3,1.1,7.3-0.8,9.8c-2.9,3.7-1,13.7,1.5,14.9c2.6,1.2,5.8,9.9,7.4,11.8c4.2,4.7,1.3,12.5,1.8,17.6
	c0.1,0.8-1.1,2.1-1.9,2.5c-8.9,3.5-17.8,7.2-26.9,10.2C10.1,97,5,98.8,0,103.4c21,0,41.7,0,62.2,0c19,0,37.8,0,56.6,0
	c0.2-0.6,0.3-1.1,0.5-1.7C114.8,99.7,110.5,97.3,106,95.5z"/>
</svg>
