<svg id="Слой_1" data-name="Слой 1" xmlns="http://www.w3.org/2000/svg" viewBox="0 0 119.3 103.4"><title>10H</title><path d="M105.63,97.1C97.21,94.8,88.47,93,80.46,89.92,72.75,87,72.24,81.49,77.58,76a36.69,36.69,0,0,0,6.06-8.6,34.29,34.29,0,0,1,2.88-4.88,3.85,3.85,0,0,0,3.39-.44,2.89,2.89,0,0,0,1-3.64l1.54-.8a3.66,3.66,0,0,0,4-.18,3,3,0,0,0,1-3.81A2.34,2.34,0,0,0,98,53.38a2.77,2.77,0,0,0,1-3.55,3.51,3.51,0,0,0,2.77-.62,2.9,2.9,0,0,0,.62-4.35,3.46,3.46,0,0,0-2.36-1.15h0a3.66,3.66,0,0,0,1.64-.62,2.9,2.9,0,0,0,.62-4.35,3.69,3.69,0,0,0-2.47-1.15V37.24c0.21-.09.31-0.18,0.51-0.27a2.79,2.79,0,0,0,1.13-3.46c0.1-.09.21-0.09,0.31-0.18a2.9,2.9,0,0,0,.62-4.35,3.44,3.44,0,0,0-2.26-1.15c-0.1-.27-0.31-0.62-0.41-0.89a2.8,2.8,0,0,0,.31-4.08,4.51,4.51,0,0,0-1.34-1,2.89,2.89,0,0,0,.31-4.08,3.86,3.86,0,0,0-4.32-.89,2.76,2.76,0,0,0-.51-3A3.82,3.82,0,0,0,91,12.76,2.78,2.78,0,0,0,90.43,10a3.7,3.7,0,0,0-4.83-.53,2.54,2.54,0,0,0-.72.71l-0.62-.53a2.86,2.86,0,0,0,.1-3.9,3.7,3.7,0,0,0-4.83-.53,6.11,6.11,0,0,0-.82.8c-0.31-.09-0.51-0.18-0.82-0.27a2.75,2.75,0,0,0-.62-2.48,3.64,3.64,0,0,0-4.73-.44,2.51,2.51,0,0,0-1.13,1.51C70.9,4.24,70.49,4.07,70,4a2.17,2.17,0,0,0-.41-0.62,3.56,3.56,0,0,0-4.73-.53c-0.51-.09-1-0.18-1.44-0.27A3,3,0,0,0,61.76.43,3.63,3.63,0,0,0,57,1.58a4.54,4.54,0,0,0-.41,1.06c-0.21,0-.41.09-0.62,0.09-0.41.09-.82,0.18-1.13,0.27a3.83,3.83,0,0,0-2.47-.8,3.31,3.31,0,0,0-3.08,2.22c-0.21,0-.41.09-0.62,0.09a3.62,3.62,0,0,0-3.29-1.6A3.18,3.18,0,0,0,42.23,6.2V6.28a2.89,2.89,0,0,0-.51.18A3.18,3.18,0,0,0,39.66,6a3.25,3.25,0,0,0-3,2c-0.31.09-.72,0.27-1,0.35a3.51,3.51,0,0,0-3.29-1.69A3.18,3.18,0,0,0,29.18,10a3.31,3.31,0,0,0,.21,1c0,0.09-.1.18-0.1,0.27l-0.72.62a3.32,3.32,0,0,0-2.06-.44,3.18,3.18,0,0,0-3.19,3.28,2.23,2.23,0,0,0,.51,1.42c-0.41.44-.82,0.8-1.23,1.24-0.1.09-.21,0.27-0.31,0.35a3.83,3.83,0,0,0-2.47-.8,3.18,3.18,0,0,0-3.19,3.28,3.14,3.14,0,0,0,2.06,2.66c0,0.09-.1.18-0.1,0.27C18.39,23.14,18.19,23,18,23a3.32,3.32,0,0,0-3.49,3.1,3,3,0,0,0,1.44,2.48c-0.21,0-.31-0.09-0.51-0.09a3.32,3.32,0,0,0-3.49,3.1,3.25,3.25,0,0,0,2.36,2.93c0.1,0.27.1,0.53,0.21,0.8a0.1,0.1,0,0,0-.1.09,2.9,2.9,0,0,0-.62,4.35,3.09,3.09,0,0,0,1.75,1.06c0.1,0.62.21,1.24,0.31,1.77a3,3,0,0,0-1.44,2.48,3.21,3.21,0,0,0,2.88,3,6,6,0,0,0,.92,1.77,3.14,3.14,0,0,0-.31,1.33,3.32,3.32,0,0,0,3.49,3.1h0.1c0.1,0.18.21,0.27,0.31,0.44a2.94,2.94,0,0,0-1.64,2.66,3.32,3.32,0,0,0,3.49,3.1,3.74,3.74,0,0,0,2.88-1.33,8.36,8.36,0,0,1,1.85.71,2.75,2.75,0,0,0,.72,2A3.82,3.82,0,0,0,32.27,63a31,31,0,0,1,2.47,3.9,62.66,62.66,0,0,0,7.4,10.47c3.08,3.55,3.19,8.6-.92,11.26a40.13,40.13,0,0,1-9.45,4.26c-7.6,2.13-15.52,3.64-23.12,5.68A64.7,64.7,0,0,0,0,102.16c0.21,0.44.41,0.8,0.62,1.24H119.3C115.4,98.52,110.15,98.34,105.63,97.1Z" transform="translate(0 0)" style="fill:#77ae5e"/></svg>