<svg id="Слой_1" data-name="Слой 1" xmlns="http://www.w3.org/2000/svg" viewBox="0 0 119.3 103.4"><title>2H</title><path d="M21.9,74.7c0-11.26-.23-21.72,0-32.09A53.45,53.45,0,0,1,32,11.92c11.41-15.74,36.84-16.14,46.76.3,5.82,9.77,9.12,21,11.63,31.89C92.61,53.18,86,61.45,75.73,64.74c-5.13,1.69-4.56,4.09-3.19,7.17,1.94,4.88,6.5,6.88,11.63,8.87,8.44,3.19,16.88,6.58,24.64,11,4.33,2.39,7.07,8.07,10.49,11.66H0c3.54-4,5.82-8.07,9.47-10.36C16.54,88.75,24.41,85.36,32,81.68c3.54-1.79,7.07-3.69,10.61-5.48-0.23-.5-0.57-1-0.8-1.49h-20Z" transform="translate(0 0)" style="fill:#d86754"/></svg>