<svg id="Слой_1" data-name="Слой 1" xmlns="http://www.w3.org/2000/svg" viewBox="0 0 119.27 103.4"><title>3H</title><path d="M119.27,103.4H0.81A9.42,9.42,0,0,1,0,102.06C3.15,99.67,6,96.71,9.54,95c7.71-3.63,15.73-6.59,23.55-9.94A29.85,29.85,0,0,0,40,81.24c3.86-3.06,4-7.64.81-11.37a1.33,1.33,0,0,1-.3-0.38c-4-6.5-8.12-12.9-11.88-19.49a8.32,8.32,0,0,1,1.22-10.6,4.54,4.54,0,0,0,1-3.44c-0.41-12.51,6.5-22.16,13.91-31.72A4.36,4.36,0,0,1,47.1,2.52c7.11-.67,14.11-4.68,21.42-1C70.85,2.81,74.2,3,75.83,4.72c6.9,7.36,10,16.34,11.78,25.89,0.71,3.73-.2,7.16,2.44,9.36,3.45,3.06.41,10.13-1.62,13.95-1.62,3.06-3.76,5.83-5.58,8.69-1.42,2.2-2.64,4.49-4.16,6.59-4.26,5.73-3.15,10.89,3.55,14,6.19,2.87,12.79,5.06,19,7.83A107.1,107.1,0,0,1,114,97.76C115.82,98.91,117,100.92,119.27,103.4Z" style="fill:#d86754"/></svg>