<svg id="Слой_1" data-name="Слой 1" xmlns="http://www.w3.org/2000/svg" viewBox="0 0 119.3 103.4"><title>4H</title><path d="M94.88,60.17l-4.05-1.54c0.62,2.12,1,3.75,1.66,5.78-4.57,1.35-9.14,2.6-13.61,4.24-1.35.48-3.33,1.93-3.33,2.89a10.41,10.41,0,0,0,2.18,5.3,25,25,0,0,0,5.92,5.78A184.27,184.27,0,0,0,100,91.37a24.46,24.46,0,0,0,7.9,2.12c6.24,0.67,9.25,4.33,11.43,9.92H0c0.52-4.81,3.95-8,8.83-9.63,7.79-2.41,15.48-5.3,23.07-8.18a14.85,14.85,0,0,0,4.47-3,35.71,35.71,0,0,1,2.81-2.7c8-7.32,6.86-9.34-3.74-12.52-4.47-1.35-9.66-1.73-10.7-9,7-10.49,5.61-24.94,8.73-38.51C36.58,7.61,46,0,59.65,0,72.54,0,82.82,7.7,85.32,19.74c2,9.72,3.33,19.64,5.4,29.36C91.45,52.66,93.32,56.22,94.88,60.17Z" style="fill:#d86754"/></svg>