<svg id="Слой_1" data-name="Слой 1" xmlns="http://www.w3.org/2000/svg" viewBox="0 0 119.3 103.4"><title>5H</title><path d="M118.84,103.4H0.69C0.46,103,.23,102.66,0,102.24A50,50,0,0,1,7.33,99C17,96.15,26.7,93.84,36.21,90.8c4.7-1.47,8.6-4.31,7.91-9.66a14.85,14.85,0,0,0-2.29-5.57c-2.52-4.2-5.27-8.4-7.91-12.5C33.23,62,33,60.66,32.2,59.92c-5.62-4.41-5-10-4.24-15.86a38.79,38.79,0,0,0-.23-8.93c-0.23-1.89-1.15-3.68-1.49-5.57-1.72-9,1.72-15.23,10.66-19.32A113.87,113.87,0,0,0,48.25,4.37c10.31-6.3,21.09-6,29.57,2.21,5.5,5.36,9.74,12,14.44,18.06,2.41,3,1.95,6.3.92,10C92,38.71,92,43,91.68,47.22,91.34,51.84,92,56.77,87,60c-1,.74-1.15,2.42-1.95,3.68-2.29,3.78-4.35,7.77-7.22,11.13-4.93,5.57-4.7,11.66,2.29,14.7,7.45,3.26,15.7,5,23.72,7.46,5.16,1.58,10.31,3,15.47,4.52C119.19,102.14,119,102.77,118.84,103.4Z" transform="translate(0 0)" style="fill:#d86754"/></svg>