<?xml version="1.0" encoding="utf-8"?>
<!-- Generator: Adobe Illustrator 20.1.0, SVG Export Plug-In . SVG Version: 6.00 Build 0)  -->
<svg version="1.1" id="Слой_1" xmlns="http://www.w3.org/2000/svg" xmlns:xlink="http://www.w3.org/1999/xlink" x="0px" y="0px"
	 viewBox="0 0 42.5 42.5" style="enable-background:new 0 0 42.5 42.5;" xml:space="preserve">
<style type="text/css">
	.st0{fill:#D86754;}
	.st1{fill:#FFFFFF;}
</style>
<circle class="st0" cx="21.2" cy="21.2" r="21.2"/>
<g>
	<path class="st1" d="M25,14.9c-0.4,0-1,0-1.6,0.1c-3.3,0.6-5.1,3-5.4,5.5h0.1c0.7-1,2-1.8,3.8-1.8c2.8,0,4.7,2,4.7,5
		c0,2.9-1.9,5.5-5.2,5.5c-3.3,0-5.5-2.6-5.5-6.6c0-3.1,1.1-5.5,2.6-7c1.3-1.3,3-2.1,5-2.3c0.6-0.1,1.2-0.1,1.5-0.1V14.9z M24.4,23.9
		c0-2.2-1.3-3.6-3.2-3.6c-1.3,0-2.4,0.8-3,1.9c-0.1,0.2-0.2,0.6-0.2,0.9c0,2.6,1.2,4.5,3.4,4.5C23.2,27.7,24.4,26.1,24.4,23.9z"/>
</g>
</svg>
