<svg id="Слой_1" data-name="Слой 1" xmlns="http://www.w3.org/2000/svg" viewBox="0 0 119.3 103.4"><title>6H</title><path d="M38.91,77.31c-1.89.66-3.64,1.32-6.46,2.36,4.58-6.9-2.56-11.34-6.6-14.84C20.2,60,20.74,55.2,20.2,50c-0.67-8.51-3.1-16.45,6.19-23.44,4.85-2.93,9.83-1.89,12-2.93C43.36,10.4,59,16.26,65,10.68c4.31-2.55-.4-8.41,4.71-10.68C75.27,2,83.48,7.47,81.6,12.85c-1.21,3.59-.94,6.33,4.17,8.88,9.29,4.63,9.16,12.1,9.83,19.19a12.5,12.5,0,0,0,2.29,5.86c2.83,4.16-.13,13.14-3.77,17.2-3.9,4.35-10.77,8.51-6.06,15.69-3-1.23-4.71-1.89-8.21-3.21-2,2.36-5.92,4.82-5.79,7.09,0.27,4.25,5.39,6.14,11.31,6.62,6.19,0.47,12.52.76,18.58,1.8,10.1,1.7,14.95,5.58,15.35,11.44H0C0,97.54,5.66,94.61,12.12,93c5.66-1.32,11.85-1.51,17.64-2.36,3.9-.57,8.21-0.76,11.58-2.08C48.47,85.91,47.53,81.94,38.91,77.31Z" style="fill:#d86754"/></svg>