<svg id="Слой_1" data-name="Слой 1" xmlns="http://www.w3.org/2000/svg" viewBox="0 0 119.3 103.4"><title>7H</title><path d="M95.77,18.75l-3.61-.32c0,8-.93,15.94.35,23.54,3.5,1.37,4.43,8.66.12,13.51C88.78,61.29,85,67.2,80.85,72.68s-3.38,11,3.26,13.93c8.74,4,18.06,7.18,27,10.87a22.25,22.25,0,0,1,8.16,5.91H0c2.8-1.9,4.54-3.38,6.52-4.33,8-3.48,16.19-6.65,24.35-9.92a63.47,63.47,0,0,0,7.81-3.48c5-3,5.48-8.13,2.21-12.67-4.78-6.65-9.2-13.51-13.28-20.48-1-1.9-4.78-10.77.58-11.29,2.21-4.22,1.86-9,1.4-16.68,0.12-.84-2.45-1.9-4.08-3.06q1.75-2.22,4.19-5.38c-0.93-.42-1.86-0.84-2.91-1.27C26.56,9.57,38.91,10,34,3.13,43.81,2.07,53.82.59,63.84,0.07a51.25,51.25,0,0,1,16,1.9c3.5,0.95,8,1.48,7.81,7.39C87.73,12.1,92.62,15.16,95.77,18.75Z" transform="translate(0 0)" style="fill:#f2ca46"/></svg>