<?xml version="1.0" encoding="utf-8"?>
<!-- Generator: Adobe Illustrator 20.1.0, SVG Export Plug-In . SVG Version: 6.00 Build 0)  -->
<svg version="1.1" id="Слой_1" xmlns="http://www.w3.org/2000/svg" xmlns:xlink="http://www.w3.org/1999/xlink" x="0px" y="0px"
	 viewBox="0 0 42.5 42.5" style="enable-background:new 0 0 42.5 42.5;" xml:space="preserve">
<style type="text/css">
	.st0{fill:#F2CA46;}
	.st1{fill:#FFFFFF;}
</style>
<circle class="st0" cx="21.2" cy="21.2" r="21.2"/>
<g>
	<path class="st1" d="M16,25.1c0-2,1.2-3.4,3.1-4.2l0-0.1c-1.7-0.8-2.5-2.2-2.5-3.5c0-2.5,2.1-4.2,4.8-4.2c3,0,4.5,1.9,4.5,3.8
		c0,1.3-0.6,2.7-2.6,3.6v0.1c1.9,0.8,3.1,2.1,3.1,4c0,2.7-2.3,4.5-5.3,4.5C17.9,29.3,16,27.4,16,25.1z M24.4,25
		c0-1.9-1.3-2.8-3.4-3.4c-1.8,0.5-2.8,1.7-2.8,3.2c-0.1,1.6,1.1,3,3.1,3C23.1,27.8,24.4,26.6,24.4,25z M18.6,17.2
		c0,1.6,1.2,2.4,3,2.9c1.3-0.5,2.4-1.4,2.4-2.8c0-1.2-0.7-2.5-2.6-2.5C19.5,14.7,18.6,15.8,18.6,17.2z"/>
</g>
</svg>
