<svg id="Слой_1" data-name="Слой 1" xmlns="http://www.w3.org/2000/svg" viewBox="0 0 119.28 103.4"><title>8H</title><path d="M118.81,103.4H0.51a9.48,9.48,0,0,1-.49-1C2.69,101.19,5.37,100,8,99c8.62-3.22,17.37-6.24,26-9.65a11.16,11.16,0,0,0,5.34-4.43c1.34-2.51,1.82-5.13-3-6.54-9.72-2.82-15.43-8.85-16.64-17.5-2.43-16.59.24-32.48,10.45-47.07C37.55,3,55.17-2.4,69,1,88.69,5.95,95.49,11.78,98.16,29.18c1.58,10.36,1.21,21,1.09,31.58-0.12,9-6.07,14.88-15.91,18.4-5.59,2-6.44,5.33-1.46,8.55A60.41,60.41,0,0,0,93.43,93c8.5,3.22,17.25,6.13,25.87,9.15A5,5,0,0,1,118.81,103.4Z" transform="translate(-0.02)" style="fill:#f2ca46"/></svg>