<svg id="Слой_1" data-name="Слой 1" xmlns="http://www.w3.org/2000/svg" viewBox="0 0 119.3 103.38"><title>9H</title><path d="M119,103.38H0A52.82,52.82,0,0,1,5.93,100c8.37-3.76,16.74-7.82,25.32-11.09,7.63-2.87,10.7-8,10.28-14.95-0.42-7.72.74-15.34-4-22.27-2.54.3-8.05-9.6-3-14.75,0.74-.79.64-2.47,0.74-3.76,0.21-4.65.64-9.21,0.53-13.86C35.71,10.73,41.64,6,48.63,3.21c3.18-1.29,3.81-2,7.1-2.87,2.75-.79,11.65-0.1,13.67,1,11.12,5.94,18,12.37,16.74,25.93-0.53,2.28,0,8,1.17,9.3,3.28,3.56,2,12.87-1.91,14.65C83,55.08,80.84,59.43,80.2,63.79a53.38,53.38,0,0,0,.32,16.93c0.42,2.47,3.6,5.25,6.25,6.63,8.37,4.16,17.16,7.72,25.64,11.58,2.33,1.09,4.56,2.28,6.89,3.46A3.59,3.59,0,0,1,119,103.38Z" transform="translate(0 0)" style="fill:#77ae5e"/></svg>