<svg width="56" height="56" viewBox="0 0 56 56" fill="none" xmlns="http://www.w3.org/2000/svg">
<g clip-path="url(#clip0)">
<path d="M12.8674 5.70544C12.5919 5.05346 11.6438 5.0274 11.3439 5.67425C11.1939 5.9981 11.2712 6.39202 11.5336 6.63513C11.7997 6.88122 12.2065 6.92437 12.5196 6.74236C12.8726 6.53686 13.0264 6.08312 12.8674 5.70544Z" fill="#87DCFF"/>
<path d="M18.5284 5.70545C18.2464 5.03894 17.2727 5.03211 16.9912 5.70545C16.8489 6.04554 16.9566 6.44971 17.2445 6.67786C17.512 6.88977 17.8939 6.91285 18.1862 6.73896C18.5352 6.53131 18.6865 6.081 18.5284 5.70545Z" fill="#87DCFF"/>
<path d="M15.6979 5.70543C15.5693 5.4008 15.2694 5.1953 14.9374 5.19188C14.5709 5.18803 14.2406 5.43327 14.1329 5.78233C14.0334 6.10576 14.15 6.46849 14.4141 6.67784C14.6913 6.89744 15.0891 6.91282 15.3843 6.72099C15.715 6.50523 15.8517 6.0703 15.6979 5.70543Z" fill="#87DCFF"/>
<path d="M52.2336 1.75H11.147C9.07019 1.75 7.38086 3.43976 7.38086 5.51617V20.1199C7.38086 20.5796 7.75342 20.9521 8.21314 20.9521C8.67285 20.9521 9.04584 20.5796 9.04584 20.1199V9.85315H33.8073V20.6847C33.8073 21.0021 33.988 21.2922 34.2734 21.4319C34.3897 21.4892 34.5148 21.517 34.6396 21.517C34.8207 21.517 35.001 21.458 35.1497 21.3427L45.6647 13.1942C45.8399 13.0588 45.9535 12.8588 45.9808 12.6392C46.0086 12.4196 45.9471 12.1983 45.8108 12.0236C45.181 11.2173 44.4761 10.4927 43.7109 9.85315H54.3348V42.1628C54.3348 43.321 53.3923 44.264 52.2336 44.264H28.1463V40.5944C29.2973 40.8917 30.4846 41.0425 31.6903 41.0425C39.494 41.0425 45.8428 34.6941 45.8428 26.8909C45.8428 25.9932 45.7583 25.0943 45.5912 24.2202C45.5049 23.7686 45.0682 23.4729 44.6171 23.5588C44.1655 23.6451 43.8694 24.0813 43.9557 24.5329C44.1031 25.3045 44.1779 26.0979 44.1779 26.8909C44.1779 30.7489 42.4189 34.204 39.6606 36.4962L32.8362 27.0545L42.0378 19.8994C42.5189 20.6095 42.9252 21.3666 43.2499 22.1587C43.4242 22.5842 43.9104 22.7876 44.3359 22.6133C44.7615 22.4385 44.9649 21.9523 44.7905 21.5268C44.3031 20.3386 43.6545 19.2205 42.8624 18.2032C42.58 17.8405 42.057 17.7751 41.6947 18.0576L32.5226 25.1891V13.5719C32.5226 13.1122 32.15 12.7392 31.6903 12.7392C23.8867 12.7392 17.5386 19.0876 17.5386 26.8909C17.5386 31.1296 19.3937 35.0722 22.6429 37.7737V44.264H20.5435V39.0452C20.5435 38.5854 20.1709 38.2125 19.7108 38.2125H15.8728C15.4127 38.2125 15.0401 38.5854 15.0401 39.0452V44.264H12.8842V22.8953C12.8842 22.4351 12.5117 22.0626 12.0519 22.0626H8.21356C7.75385 22.0626 7.38129 22.4351 7.38129 22.8953V53.4318C7.38129 53.8915 7.75385 54.2641 8.21356 54.2641H12.0519C12.5117 54.2641 12.8842 53.8915 12.8842 53.4318V45.929H15.0401V53.4318C15.0401 53.8915 15.4127 54.2641 15.8728 54.2641H19.7108C20.1709 54.2641 20.5435 53.8915 20.5435 53.4318V45.929H22.6429V53.4318C22.6429 53.8915 23.0155 54.2641 23.4757 54.2641H27.3136C27.7738 54.2641 28.1463 53.8915 28.1463 53.4318V45.929H52.2336C54.31 45.929 55.9998 44.2396 55.9998 42.1628V5.51617C55.9998 3.43976 54.31 1.75 52.2336 1.75V1.75ZM9.04627 52.5991V23.7275H11.2192V52.5991H9.04627ZM16.7051 52.5991V39.8779H18.8785V52.5991H16.7051ZM19.2036 26.8909C19.2036 20.2856 24.3592 14.8618 30.8576 14.4315V26.8909C30.8576 27.0695 30.9166 27.2382 31.0174 27.3775L31.0161 27.3788L38.3118 37.4729C36.3913 38.679 34.1209 39.3776 31.6903 39.3776C30.4791 39.3776 29.29 39.205 28.1463 38.8661V32.3857C28.1463 31.9255 27.7738 31.553 27.3136 31.553H23.4757C23.0155 31.553 22.6429 31.9255 22.6429 32.3857V35.4995C20.4388 33.191 19.2036 30.1396 19.2036 26.8909ZM24.3079 52.5991V33.218H26.4813V52.5991H24.3079ZM35.4723 18.9864V8.27106C38.7527 8.48468 41.7755 9.9574 43.9625 12.4072L35.4723 18.9864ZM41.2243 8.18817C39.2261 7.14099 36.9788 6.57874 34.6396 6.57874C34.1799 6.57874 33.8073 6.95172 33.8073 7.41144V8.18817H9.04584V5.51617C9.04584 4.35748 9.98834 3.41498 11.147 3.41498H52.2336C53.3923 3.41498 54.3348 4.35748 54.3348 5.51617V8.18817H41.2243Z" fill="#87DCFF"/>
<path d="M4.67065 27.7231H0.832703C0.372559 27.7231 0 28.0961 0 28.5558V53.4318C0 53.8915 0.372559 54.2641 0.832703 54.2641H4.67065C5.13037 54.2641 5.50336 53.8915 5.50336 53.4318V46.704C5.50336 46.2443 5.13037 45.8713 4.67065 45.8713C4.21094 45.8713 3.83795 46.2443 3.83795 46.704V52.5991H1.66498V29.3881H3.83795V43.9286C3.83795 44.3883 4.21094 44.7613 4.67065 44.7613C5.13037 44.7613 5.50336 44.3883 5.50336 43.9286V28.5558C5.50336 28.0961 5.13037 27.7231 4.67065 27.7231Z" fill="#87DCFF"/>
<path d="M52.2884 40.2376H43.464C43.0043 40.2376 42.6313 40.6106 42.6313 41.0703C42.6313 41.53 43.0043 41.903 43.464 41.903H52.2884C52.7481 41.903 53.1207 41.53 53.1207 41.0703C53.1207 40.6106 52.7481 40.2376 52.2884 40.2376Z" fill="#87DCFF"/>
<path d="M52.2886 36.7141H46.1282C45.6685 36.7141 45.2959 37.0871 45.2959 37.5468C45.2959 38.0065 45.6685 38.3791 46.1282 38.3791H52.2886C52.7484 38.3791 53.1209 38.0065 53.1209 37.5468C53.1209 37.0871 52.7484 36.7141 52.2886 36.7141Z" fill="#87DCFF"/>
</g>
<defs>
<clipPath id="clip0">
<rect width="56" height="56" fill="white"/>
</clipPath>
</defs>
</svg>
