<svg width="16" height="16" viewBox="0 0 16 16" fill="none" xmlns="http://www.w3.org/2000/svg">
<path d="M15.995 3.06902C15.995 5.49985 14.9353 7.26586 14.8907 7.33952C14.801 7.48623 14.6456 7.5667 14.4853 7.5667C14.4011 7.5667 14.3163 7.54441 14.2395 7.49799C14.0155 7.36181 13.9437 7.07026 14.0792 6.84618C14.0891 6.83008 15.0455 5.22253 15.0455 3.06902C15.0455 1.84092 14.247 0.949551 13.1464 0.949551C12.099 0.949551 11.2473 1.8013 11.2473 2.84927C11.2473 3.29557 11.4633 4.42959 11.5463 4.82885C11.6001 5.08573 11.4348 5.33705 11.1779 5.3909C10.9211 5.44352 10.6697 5.27948 10.6165 5.02321C10.5837 4.8666 10.2965 3.47447 10.2965 2.84927C10.2965 1.27824 11.5747 0 13.1464 0C14.77 0 15.995 1.3191 15.995 3.06902ZM13.2268 3.81616C13.4156 5.394 13.6892 8.46859 13.3748 8.7818L6.47537 15.6818C6.05136 16.1065 5.36241 16.1065 4.93777 15.6812L0.324337 11.0684C-0.1003 10.6444 -0.1003 9.95543 0.324337 9.5308L7.22437 2.63138C7.33393 2.52182 8.52737 2.51687 9.86937 2.58682C9.86194 2.67533 9.84275 2.7589 9.84275 2.84927C9.84275 3.19344 9.91889 3.72702 9.99874 4.19622C9.85823 4.40483 9.7759 4.65552 9.7759 4.92603C9.7759 5.64655 10.3602 6.23089 11.0808 6.23089C11.8013 6.23089 12.3856 5.64655 12.3856 4.92603C12.3856 4.4822 12.1634 4.09099 11.8248 3.85577C11.7555 3.4429 11.6998 3.04426 11.6998 2.84927C11.6998 2.80718 11.7084 2.76818 11.7121 2.72671C11.8774 2.74404 12.0402 2.76199 12.1943 2.78118C13.1061 2.89322 13.1154 2.89137 13.2268 3.81616ZM9.54934 8.97988C9.44226 8.68214 9.26398 8.32498 8.87711 7.91396L9.40078 7.38966L8.81768 6.80718L8.25253 7.37295C7.49611 6.85484 6.71617 6.89694 6.18692 7.42618C5.61001 8.00309 5.74619 8.73538 6.16959 9.58651C6.46052 10.1758 6.51375 10.515 6.28782 10.7409C6.05569 10.9731 5.68119 10.8722 5.34136 10.533C4.9551 10.1467 4.72855 9.66945 4.61589 9.28258L3.74062 9.8013C3.84213 10.1517 4.11573 10.6512 4.50199 11.0622L3.93127 11.6336L4.51375 12.2167L5.12718 11.6038C5.93622 12.1746 6.75207 12.0978 7.28132 11.5686C7.82294 11.0257 7.87061 10.4191 7.40635 9.45528C7.08447 8.76447 7.0071 8.42526 7.19775 8.23522C7.36488 8.06809 7.662 8.02043 8.04888 8.4073C8.47785 8.83627 8.62022 9.25286 8.6976 9.47323L9.54934 8.97988Z" fill="#FFFFFF"/>
</svg>
