<svg width="10" height="14" viewBox="0 0 10 14" fill="none" xmlns="http://www.w3.org/2000/svg">
<path d="M5.00017 0C2.42702 0 0.333496 2.09352 0.333496 4.66668C0.333496 5.43914 0.526625 6.20504 0.89377 6.88436L4.74497 13.8496C4.79624 13.9425 4.89394 14 5.00017 14C5.1064 14 5.2041 13.9425 5.25537 13.8496L9.108 6.88207C9.47372 6.20504 9.66685 5.43911 9.66685 4.66665C9.66685 2.09352 7.57333 0 5.00017 0ZM5.00017 7C3.71359 7 2.66685 5.95325 2.66685 4.66668C2.66685 3.3801 3.71359 2.33335 5.00017 2.33335C6.28675 2.33335 7.3335 3.3801 7.3335 4.66668C7.3335 5.95325 6.28675 7 5.00017 7Z" fill="#BEBEBE"/>
</svg>
