<svg width="49" height="49" viewBox="0 0 49 49" fill="none" xmlns="http://www.w3.org/2000/svg">
<g clip-path="url(#clip0)">
<path d="M22.4578 46.9264C10.0754 46.9264 0 36.8513 0 24.469C0 12.0867 10.0754 2.01123 22.4578 2.01123C26.7635 2.01123 30.9526 3.23814 34.5724 5.56148C35.2831 6.01905 35.4913 6.96633 35.0337 7.67885C34.5747 8.39137 33.6293 8.59735 32.9167 8.14015C29.793 6.13307 26.1755 5.07364 22.4578 5.07364C11.7636 5.07364 3.0624 13.7749 3.0624 24.469C3.0624 35.1627 11.7636 43.864 22.4578 43.864C33.1515 43.864 41.8527 35.1627 41.8527 24.469C41.8527 23.8297 41.8221 23.1969 41.763 22.5744C41.6815 21.7311 42.298 20.9838 43.1391 20.9023C43.9843 20.8245 44.7293 21.4372 44.8112 22.2784C44.8804 22.9991 44.9151 23.7299 44.9151 24.469C44.9151 36.8513 34.8401 46.9264 22.4578 46.9264Z" fill="#FF8D8D"/>
<path d="M25.0094 29.5729C24.6176 29.5729 24.2255 29.4237 23.9276 29.1239L14.7403 19.9367C14.1422 19.3382 14.1422 18.3685 14.7403 17.7704C15.3385 17.1722 16.3082 17.1722 16.9063 17.7704L25.0117 25.8757L46.3849 4.50206C46.9834 3.90394 47.9532 3.90394 48.5513 4.50206C49.1494 5.10019 49.1494 6.0699 48.5513 6.66802L26.0935 29.1258C25.7933 29.4237 25.4016 29.5729 25.0094 29.5729Z" fill="#FF8D8D"/>
</g>
<defs>
<clipPath id="clip0">
<rect width="49" height="49" fill="white"/>
</clipPath>
</defs>
</svg>
