<svg width="43" height="43" viewBox="0 0 43 43" fill="#000000" xmlns="http://www.w3.org/2000/svg">
    <path d="M9.62431 42.1307C9.1532 42.1307 8.68537 41.9837 8.28611 41.695C7.54237 41.156 7.19494 40.2295 7.39736 39.3355L10.1637 27.1499L0.782107 18.9225C0.0924987 18.3205 -0.170943 17.3672 0.112183 16.4948C0.39531 15.6241 1.16562 15.0077 2.07766 14.9233L14.4906 13.7964L19.3982 2.31158C19.7601 1.46778 20.5842 0.922852 21.4999 0.922852C22.4155 0.922852 23.2396 1.46778 23.6015 2.30961L28.5091 13.7964L40.9201 14.9233C41.8341 15.0057 42.6044 15.6241 42.8876 16.4948C43.1707 17.3655 42.9089 18.3205 42.2193 18.9225L32.8377 27.1483L35.604 39.3336C35.8068 40.2295 35.459 41.156 34.7156 41.6934C33.9738 42.2308 32.9847 42.2721 32.2036 41.8026L21.4999 35.4062L10.7962 41.8063C10.4343 42.0211 10.0311 42.1307 9.62431 42.1307ZM21.4999 32.6507C21.9067 32.6507 22.3096 32.76 22.6718 32.9749L32.7734 39.0167L30.1626 27.5154C29.9763 26.6969 30.2542 25.8422 30.8867 25.2885L39.745 17.5197L28.0252 16.4554C27.1814 16.3783 26.4557 15.8478 26.126 15.0703L21.4999 4.23212L16.8682 15.072C16.542 15.8442 15.8164 16.3747 14.9745 16.4518L3.25315 17.5161L12.1111 25.2849C12.7456 25.8403 13.0231 26.6933 12.8352 27.5138L10.2263 39.0147L20.328 32.9749C20.6899 32.76 21.0931 32.6507 21.4999 32.6507ZM14.3958 14.0185C14.3958 14.0185 14.3958 14.0205 14.3938 14.0221L14.3958 14.0185ZM28.6003 14.0133L28.6023 14.0169C28.6023 14.0149 28.6023 14.0149 28.6003 14.0133Z" fill="#99E7B7"/>
</svg>
