<svg width="41" height="41" viewBox="0 0 41 41" fill="none" xmlns="http://www.w3.org/2000/svg">
<g clip-path="url(#clip0)">
<path d="M27.8688 12.424C27.4259 12.424 27.0664 12.7818 27.0664 13.2244C27.0664 13.6667 27.4259 14.0252 27.8688 14.0252C28.3126 14.0252 28.6711 13.6667 28.6711 13.2244C28.6711 12.7818 28.3126 12.424 27.8688 12.424Z" fill="#80D6AC"/>
<path d="M13.2904 26.9735C12.8466 26.9735 12.488 27.3323 12.488 27.7743C12.488 28.2172 12.8466 28.5751 13.2904 28.5751C13.7332 28.5751 14.0927 28.2172 14.0927 27.7743C14.0927 27.3323 13.7332 26.9735 13.2904 26.9735Z" fill="#80D6AC"/>
<path d="M40.122 4.92645C39.8512 4.86357 39.5667 4.94522 39.3711 5.14228L36.0448 8.48836H34.4501L32.6947 6.67315V5.05939L35.9733 1.73834C36.1673 1.54189 36.2463 1.25943 36.1821 0.990731C36.1181 0.722344 35.9201 0.505882 35.658 0.417671C34.8344 0.140526 33.9725 7.59715e-05 33.0959 7.59715e-05C30.4826 7.59715e-05 28.1084 1.21626 26.5821 3.33677C25.1535 5.32183 24.7132 7.75452 25.3441 10.0827L19.434 15.9813L9.58767 6.13169V4.19855C9.58767 3.91734 9.43974 3.65646 9.19809 3.51194L3.52493 0.11425C3.209 -0.0749973 2.80501 -0.0252612 2.54487 0.23468L0.275729 2.49908C0.0155925 2.75902 -0.0342408 3.16223 0.155063 3.47753L3.55878 9.13962C3.70357 9.3808 3.96465 9.52813 4.24641 9.52844L6.18271 9.52907L16.03 19.3787L10.1424 25.2547C7.80966 24.6254 5.37095 25.0655 3.38107 26.4922C1.25767 28.0146 0.0400391 30.3835 0.0400391 32.9917C0.0400391 33.8663 0.180763 34.7268 0.458451 35.5485C0.547148 35.8116 0.766227 36.0102 1.03702 36.0728C1.30813 36.1357 1.5924 36.054 1.78828 35.857L5.11427 32.5112H6.71771L8.54462 34.3345V35.9348L5.19231 39.2543C4.99485 39.4498 4.91305 39.7336 4.97605 40.0041C5.03873 40.2744 5.23775 40.493 5.50134 40.5816C6.32468 40.8587 7.18689 40.9992 8.06321 40.9992C10.6765 40.9992 13.0497 39.7836 14.5754 37.6643C16.0049 35.6783 16.4459 33.2447 15.8153 30.9165L20.5438 26.1972L21.627 27.3715L21.1299 27.8673C20.8165 28.1801 20.8165 28.6871 21.1299 28.9999C21.4433 29.3124 21.951 29.3124 22.2648 28.9999L22.7148 28.5508L32.8777 39.5684C32.8852 39.5765 32.8931 39.5843 32.9009 39.5922C34.7814 41.469 37.8281 41.4696 39.7096 39.5919C41.5857 37.7185 41.5857 34.6702 39.7096 32.7968C39.7014 32.7886 39.693 32.7808 39.6845 32.773L28.6281 22.6494L29.0731 22.2052C29.3866 21.8927 29.3866 21.3856 29.0731 21.0728C28.7597 20.76 28.252 20.76 27.9383 21.0728L27.4446 21.5658L26.2659 20.486L31.0173 15.7439C31.6927 15.9241 32.3897 16.0154 33.0959 16.0154C37.5201 16.0154 41.119 12.4231 41.119 8.00789C41.119 7.13298 40.9783 6.27276 40.7006 5.45071C40.6119 5.18764 40.3928 4.98901 40.122 4.92645ZM7.08347 8.16273C6.93303 8.01227 6.72899 7.93563 6.51587 7.93563L4.70118 7.93501L1.85347 3.18975L3.23658 1.80934L7.98298 4.65212V6.46326C7.98298 6.67534 8.06728 6.87867 8.21741 7.02881L18.2994 17.114L17.1645 18.2463L7.08347 8.16273ZM27.4923 23.783L38.5863 33.9407C39.8256 35.1907 39.8218 37.2145 38.5747 38.4598C37.3248 39.7073 35.3014 39.711 34.0464 38.4708L23.8504 27.4172L27.4923 23.783ZM26.3088 22.6991L22.7625 26.2379L21.6793 25.0636L25.13 21.6193L26.3088 22.6991ZM33.0959 14.4138C32.3941 14.4138 31.704 14.3015 31.0452 14.0801C30.7565 13.9834 30.4374 14.0579 30.2218 14.2728C26.1994 18.2873 17.5322 26.9373 14.3406 30.1229C14.125 30.3381 14.0501 30.6566 14.1476 30.945C14.8145 32.9216 14.4955 35.0299 13.2719 36.73C12.0518 38.4251 10.1531 39.3976 8.06321 39.3976C7.82846 39.3976 7.59496 39.3848 7.36366 39.3601L9.91206 36.8363C10.0638 36.6862 10.1493 36.4816 10.1493 36.268V34.0026C10.1493 33.7902 10.0647 33.5866 9.91425 33.4365L7.61722 31.1439C7.46678 30.9938 7.26274 30.9093 7.04993 30.9093H4.78016C4.5661 30.9093 4.36112 30.9947 4.21037 31.1461L1.68203 33.6895C1.65696 33.4587 1.64442 33.2256 1.64442 32.9913C1.64442 30.9052 2.61852 29.0106 4.31725 27.7928C6.02036 26.5716 8.1331 26.2529 10.1139 26.9189C10.4026 27.0161 10.7216 26.9414 10.9372 26.7262C10.9814 26.6824 26.8071 10.8873 26.8184 10.876C27.034 10.6608 27.1086 10.3427 27.0115 10.0543C26.3442 8.07765 26.6626 5.96997 27.8853 4.27112C29.1064 2.57446 31.0054 1.60164 33.0955 1.60164C33.3375 1.60164 33.5779 1.61509 33.8161 1.64137L31.3207 4.16915C31.1727 4.31898 31.09 4.52074 31.09 4.73094V6.99628C31.09 7.20398 31.1705 7.40324 31.315 7.55245L33.5318 9.845C33.6829 10.0014 33.8913 10.0896 34.1091 10.0896H36.3789C36.5927 10.0896 36.7976 10.0045 36.9484 9.85282L39.4767 7.30971C39.5018 7.54056 39.5143 7.7736 39.5143 8.00789C39.5143 11.5401 36.635 14.4138 33.0959 14.4138Z" fill="#80D6AC"/>
<path d="M25.0322 14.9231L14.9919 24.9438C14.6788 25.2563 14.6788 25.7634 14.9919 26.0762C15.3053 26.389 15.8134 26.389 16.1268 26.0762L26.1671 16.0554C26.4805 15.7429 26.4805 15.2359 26.1671 14.9231C25.8537 14.6103 25.3457 14.6103 25.0322 14.9231Z" fill="#80D6AC"/>
<path d="M35.1713 36.1953C35.4847 36.5072 35.9928 36.5072 36.3062 36.1934C36.619 35.8803 36.6181 35.3733 36.3043 35.0611L29.0722 27.8662C28.7585 27.5541 28.2501 27.555 27.9376 27.8681C27.6245 28.1815 27.6255 28.6883 27.9392 29.0005L35.1713 36.1953Z" fill="#80D6AC"/>
</g>
<defs>
<clipPath id="clip0">
<rect width="41" height="41" fill="white"/>
</clipPath>
</defs>
</svg>
