<svg width="44" height="44" viewBox="0 0 44 44" fill="none" xmlns="http://www.w3.org/2000/svg">
<path d="M42.8073 20.7605C43.5608 20.0033 43.999 18.9768 43.999 17.8749C43.999 16.2854 43.0897 14.8885 41.7367 14.2065C42.0172 13.6455 42.1657 13.024 42.1657 12.375C42.1657 10.7856 41.2545 9.38679 39.9016 8.70661C40.3196 7.87063 40.4424 6.90816 40.2316 5.95298C39.8209 4.09583 38.0738 2.75025 36.0773 2.75025H19.2495C17.9754 2.75025 15.9221 3.16274 14.3969 3.94742C13.7589 2.18196 12.0649 0.916992 10.0832 0.916992H4.58328C2.05515 0.916992 0 2.97205 0 5.50019V20.1665C0 22.6947 2.05515 24.7497 4.5832 24.7497H13.7497C14.2557 24.7497 14.6664 24.3391 14.6664 23.8331V23.4829L14.8845 23.5929L20.1662 35.0326V41.2493C20.1662 41.528 20.2927 41.7919 20.509 41.9661C20.5677 42.0101 21.9298 43.0825 23.8327 43.0825C25.9539 43.0825 29.3326 39.7258 29.3326 35.7494C29.3326 33.2415 28.4343 30.1193 27.8733 28.4163H39.1976C41.6652 28.4163 43.7643 26.5903 43.9807 24.2602C44.0998 22.9531 43.6635 21.6973 42.8073 20.7605ZM40.8475 21.4993C41.7477 22.0548 42.25 23.0485 42.1528 24.0934C42.0245 25.4886 40.7265 26.5831 39.1976 26.5831H26.5827C26.282 26.5831 25.9997 26.7316 25.8274 26.9791C25.6569 27.2284 25.6184 27.5456 25.7266 27.8261C25.7431 27.8719 27.4994 32.5229 27.4994 35.7496C27.4994 38.7525 24.8374 41.2494 23.8327 41.2494C23.0426 41.2494 22.379 40.9616 21.9995 40.7526V34.833C21.9995 34.701 21.9702 34.569 21.9133 34.448L16.4134 22.5316C16.3272 22.3446 16.1787 22.1906 15.9917 22.0971L14.1585 21.1804C13.8743 21.0374 13.5352 21.0557 13.2675 21.2189C12.998 21.3876 12.833 21.6827 12.833 21.9999V22.9166H4.5832C3.06704 22.9166 1.83326 21.6828 1.83326 20.1666V5.50019C1.83326 3.98403 3.06704 2.75025 4.5832 2.75025H10.0831C11.5992 2.75025 12.833 3.98403 12.833 5.50019C12.833 5.87048 13.0567 6.20598 13.3995 6.34717C13.7405 6.48647 14.1347 6.40947 14.3987 6.14917C15.2639 5.282 17.7609 4.58352 19.2495 4.58352H36.0773C37.2213 4.58352 38.215 5.32419 38.4405 6.35078C38.622 7.17026 38.38 7.96594 37.7768 8.53603C37.5165 8.77983 37.4211 9.15202 37.5348 9.49301C37.6485 9.8322 37.9473 10.0742 38.3011 10.1145C39.4579 10.2465 40.3324 11.2182 40.3324 12.3749C40.3324 13.0056 40.0739 13.5959 39.6101 14.0359C39.3498 14.2797 39.2544 14.6519 39.3681 14.9929C39.4818 15.3321 39.7806 15.5741 40.1344 15.6144C41.2911 15.7464 42.1656 16.718 42.1656 17.8748C42.1656 18.7291 41.6853 19.5065 40.9098 19.9025C40.6165 20.0547 40.4277 20.3516 40.4131 20.6834C40.4002 21.0135 40.567 21.3251 40.8475 21.4993Z" fill="#99E7B7"/>
</svg>
