<svg width="58" height="58" viewBox="0 0 58 58" fill="none" xmlns="http://www.w3.org/2000/svg">
<path d="M55.1 48.14C49.3306 45.0805 44.9051 43.365 40.9657 42.7073L41.3734 42.1467C41.5667 41.9534 41.6634 41.6634 41.5667 41.3734L40.6608 37.7498C40.9891 37.2857 41.2988 36.8059 41.5889 36.3125C45.1913 35.0865 47.013 33.014 47.3191 29.9627C48.9014 29.8802 50.2666 28.4679 50.2666 26.8734V19.6234C50.2666 18.0361 49.0039 16.6295 47.3496 16.5353C47.1368 10.951 44.6745 0 29 0C13.3252 0 10.8631 10.9515 10.6502 16.5357C9.08097 16.6283 7.73337 17.9459 7.73337 19.6233V26.8733C7.73337 28.5166 9.18337 29.9666 10.9234 29.9666H12.3734C12.9062 29.9666 13.4184 29.8135 13.8645 29.5513C14.4127 32.461 15.6224 35.3228 17.3393 37.7497L16.4334 41.3733C16.4334 41.5666 16.4334 41.8566 16.6267 42.1466L17.0344 42.7071C13.095 43.365 8.66953 45.0804 2.90011 48.1399C1.06337 49.01 0 50.8466 0 52.8766V57.0333C0 57.6134 0.386629 58 0.966629 58H24.1666H24.5533H33.4466H33.8333H57.0333C57.6133 58 57.9999 57.6134 57.9999 57.0334V52.8767C58 50.9434 56.84 49.1066 55.1 48.14ZM29.0053 45.9289L31.32 51.2334H26.6477L29.0053 45.9289ZM25.9454 53.1666H32.0509L32.6167 56.0666H25.3653L25.9454 53.1666ZM39.15 39.6334L39.5366 41.3734L38.5492 42.7292C38.4862 42.7808 38.4278 42.8432 38.3766 42.92L34.3557 48.4874L33.0799 50.2392L30.4739 44.3757C33.6523 43.988 36.4828 42.3681 38.7522 40.047C38.8863 39.9117 39.019 39.7743 39.15 39.6334ZM42.9246 33.6201C43.4699 32.2934 43.8809 30.9145 44.1407 29.5245C44.5088 29.7474 44.9278 29.8964 45.3796 29.9469C45.212 31.3133 44.6049 32.6034 42.9246 33.6201ZM48.2366 19.5266V26.7766C48.2366 27.3566 47.7533 27.9366 47.0766 27.9366H45.6266C45.0466 27.9366 44.4666 27.4533 44.4666 26.7766V26.1V19.5266C44.4666 18.9466 44.95 18.3666 45.6266 18.3666H47.0766C47.6566 18.3666 48.2366 18.85 48.2366 19.5266ZM29 1.93337C34.9583 1.93337 44.986 3.87841 45.4172 16.5457C45.0121 16.5873 44.6241 16.7105 44.2731 16.8996C43.0968 9.53851 36.679 3.86663 29 3.86663C21.322 3.86663 14.9049 9.53692 13.7273 16.8965C13.3816 16.7098 12.9955 16.5864 12.5827 16.5454C13.0141 3.87841 23.0419 1.93337 29 1.93337ZM13.4366 26.7766C13.4366 27.3566 12.9533 27.9366 12.2766 27.9366H10.8266C10.2466 27.9366 9.66663 27.4533 9.66663 26.7766V19.5266C9.66663 18.9466 10.15 18.3666 10.8266 18.3666H12.2766C12.8566 18.3666 13.4366 18.85 13.4366 19.5266V26.7766ZM15.4666 19.3334C15.4666 11.89 21.5566 5.8 29 5.8C36.4434 5.8 42.5334 11.89 42.5334 19.3334V26.1C42.5334 29.2982 41.7008 32.2261 40.3509 34.6966C38.0436 35.3658 34.7243 35.7666 29.9667 35.7666C29.3867 35.7666 29.0001 36.1533 29.0001 36.7333C29.0001 37.3133 29.3867 37.6999 29.9667 37.6999C33.4496 37.6999 36.3624 37.486 38.7477 37.0389C38.6885 37.0981 38.6292 37.1574 38.57 37.2166C38.0837 37.8651 37.5704 38.4563 37.0341 38.9894C34.758 41.1099 32.0432 42.3944 29.4271 42.5216C29.2954 42.4651 29.1478 42.4366 29 42.4366C28.8514 42.4366 28.7175 42.4657 28.5974 42.5228C26.9961 42.4494 25.3572 41.9418 23.8038 41.0736C22.23 40.1694 20.7495 38.8659 19.43 37.2166C19.3334 37.12 19.2366 37.0233 19.14 36.9266L19.0836 36.9078C16.9127 34.0606 15.4666 30.315 15.4666 26.1V19.3334ZM27.526 44.3757L24.9199 50.2392L23.6442 48.4874L19.6233 42.92C19.5924 42.8892 19.5585 42.8587 19.5231 42.8287L18.4633 41.3734L18.8499 39.6334C18.9807 39.7743 19.1135 39.9116 19.2474 40.0467C21.5169 42.3679 24.3475 43.9879 27.526 44.3757ZM1.93337 52.8766C1.93337 51.62 2.61 50.46 3.77 49.88C9.93171 46.6066 14.3672 44.9637 18.3185 44.473L24.087 52.4047L23.3546 56.0666H1.93337V52.8766ZM56.0666 56.0666H34.6454L33.913 52.4047L39.744 44.387C43.6814 44.9812 48.1965 46.6228 54.2301 49.7833C55.3901 50.4599 56.0667 51.6199 56.0667 52.8766V56.0666H56.0666Z" fill="#87DCFF"/>
</svg>
