<svg width="13" height="13" viewBox="0 0 13 13" fill="none" xmlns="http://www.w3.org/2000/svg">
<path d="M12.6105 7.92459L11.4156 6.99022C11.4308 6.84613 11.4438 6.67768 11.4438 6.49947C11.4438 6.32125 11.4313 6.15281 11.4156 6.00872L12.6116 5.07381C12.8337 4.89831 12.8944 4.58684 12.753 4.3274L11.5104 2.1775C11.3777 1.93484 11.0868 1.81025 10.7916 1.91912L9.38164 2.48516C9.11136 2.29016 8.82805 2.1255 8.53502 1.99388L8.32051 0.498342C8.2853 0.2145 8.0383 0 7.74636 0H5.2547C4.96273 0 4.71629 0.2145 4.68161 0.494L4.46657 1.99497C4.18273 2.12281 3.90379 2.28531 3.62157 2.48625L2.20782 1.91859C1.94292 1.81622 1.62605 1.93103 1.49442 2.17263L0.250231 4.32522C0.103448 4.57331 0.164106 4.89559 0.391073 5.07543L1.58598 6.00981C1.56701 6.19234 1.55782 6.35106 1.55782 6.50003C1.55782 6.64899 1.56704 6.80768 1.58598 6.99078L0.389981 7.92568C0.16789 8.10172 0.107765 8.41318 0.24914 8.67209L1.49173 10.822C1.62445 11.0641 1.91261 11.1897 2.21051 11.0803L3.62048 10.5143C3.89023 10.7088 4.17351 10.8734 4.46657 11.0056L4.68107 12.5006C4.71626 12.7855 4.96273 13 5.25523 13H7.74689C8.03886 13 8.28586 12.7855 8.32051 12.506L8.53555 11.0056C8.81939 10.8772 9.0978 10.7153 9.38055 10.5138L10.7943 11.0814C10.8625 11.1079 10.9335 11.1215 11.0066 11.1215C11.2168 11.1215 11.4102 11.0067 11.5077 10.8279L12.7557 8.66666C12.8944 8.41316 12.8337 8.10172 12.6105 7.92459ZM6.50051 8.66666C5.30561 8.66666 4.33386 7.69491 4.33386 6.5C4.33386 5.30509 5.30561 4.33334 6.50051 4.33334C7.69542 4.33334 8.66717 5.30509 8.66717 6.5C8.66717 7.69491 7.69542 8.66666 6.50051 8.66666Z" fill="#514B4B"/>
</svg>
