<svg width="12" height="12" viewBox="0 0 12 12" fill="none" xmlns="http://www.w3.org/2000/svg">
<g clip-path="url(#clip0)">
<path d="M7 7.3749C6.904 7.3749 6.808 7.3384 6.735 7.2649C6.5885 7.1184 6.5885 6.8809 6.735 6.7344L9.3605 4.1089C9.507 3.9624 9.7445 3.9624 9.891 4.1089C10.0375 4.2554 10.0375 4.4929 9.891 4.6394L7.265 7.2649C7.192 7.3384 7.096 7.3749 7 7.3749Z" fill="black"/>
<path d="M6.87549 7.49951C6.77599 7.49951 6.68049 7.46001 6.61049 7.38951C6.53949 7.31901 6.49999 7.22301 6.50049 7.12351L6.50399 5.87351C6.50449 5.66651 6.67249 5.49951 6.87899 5.49951H6.87999C7.08699 5.50001 7.25449 5.66851 7.25399 5.87551L7.25149 6.74851L8.12449 6.74601H8.12549C8.33199 6.74601 8.49999 6.91301 8.50049 7.12001C8.50099 7.32701 8.33349 7.49551 8.12649 7.49601L6.87649 7.49951C6.87649 7.49951 6.87599 7.49951 6.87549 7.49951Z" fill="black"/>
<path d="M5.62499 12H0.874992C0.373992 12 -7.62939e-06 11.472 -7.62939e-06 11V9.875C-7.62939e-06 9.3925 0.392492 9 0.874992 9H5.62499C6.10749 9 6.49999 9.3925 6.49999 9.875V11.125C6.49999 11.6075 6.10749 12 5.62499 12ZM0.874992 9.75C0.805992 9.75 0.749992 9.806 0.749992 9.875V11C0.749992 11.1015 0.836992 11.2345 0.885492 11.251L5.62499 11.25C5.69399 11.25 5.74999 11.194 5.74999 11.125V9.875C5.74999 9.806 5.69399 9.75 5.62499 9.75H0.874992Z" fill="black"/>
<path d="M10.625 11H7.875C7.668 11 7.5 10.832 7.5 10.625C7.5 10.418 7.668 10.25 7.875 10.25H10.625C10.9695 10.25 11.25 9.9695 11.25 9.625V1.375C11.25 1.0305 10.9695 0.75 10.625 0.75H1.375C1.0305 0.75 0.75 1.0305 0.75 1.375V7.625C0.75 7.832 0.582 8 0.375 8C0.168 8 0 7.832 0 7.625V1.375C0 0.6165 0.6165 0 1.375 0H10.625C11.3835 0 12 0.6165 12 1.375V9.625C12 10.3835 11.3835 11 10.625 11Z" fill="black"/>
<path d="M11.625 2.5H0.374992C0.167992 2.5 -7.62939e-06 2.332 -7.62939e-06 2.125C-7.62939e-06 1.918 0.167992 1.75 0.374992 1.75H11.625C11.832 1.75 12 1.918 12 2.125C12 2.332 11.832 2.5 11.625 2.5Z" fill="black"/>
</g>
<defs>
<clipPath id="clip0">
<rect width="12" height="12" fill="white"/>
</clipPath>
</defs>
</svg>
