<svg width="13" height="17" viewBox="0 0 13 17" fill="none" xmlns="http://www.w3.org/2000/svg">
<path d="M6.50023 8.31412C8.39034 8.31412 9.92272 6.45296 9.92272 4.15708C9.92272 1.86116 9.41961 0 6.50023 0C3.58084 0 3.07764 1.86116 3.07764 4.15708C3.07764 6.45296 4.61002 8.31412 6.50023 8.31412Z" fill="#BEBEBE"/>
<path d="M0.0358303 14.6614C0.0352466 14.5214 0.0346628 14.622 0.0358303 14.6614V14.6614Z" fill="#BEBEBE"/>
<path d="M12.9644 14.7708C12.9662 14.7324 12.965 14.5049 12.9644 14.7708V14.7708Z" fill="#BEBEBE"/>
<path d="M12.957 14.4936C12.8936 10.4941 12.3712 9.35449 8.37414 8.6331C8.37414 8.6331 7.81149 9.35007 6.50006 9.35007C5.18864 9.35007 4.62589 8.6331 4.62589 8.6331C0.672416 9.34662 0.118313 10.4693 0.0454559 14.3637C0.0394817 14.6817 0.0367131 14.6984 0.0356445 14.6615C0.0358874 14.7306 0.0361787 14.8586 0.0361787 15.0816C0.0361787 15.0816 0.98779 17 6.50006 17C12.0122 17 12.964 15.0816 12.964 15.0816C12.964 14.9383 12.964 14.8386 12.9642 14.7708C12.9631 14.7937 12.961 14.7494 12.957 14.4936Z" fill="#BEBEBE"/>
</svg>
