<svg width="29" height="29" viewBox="0 0 29 29" fill="none" xmlns="http://www.w3.org/2000/svg">
<path d="M14.257 0.643555L26.4187 7.56038V21.394L14.257 28.3109L2.0954 21.394V7.56038L14.257 0.643555Z" fill="#D6D6D6"/>
<path d="M4.26946 8.85391L14.3789 3.10426L24.4883 8.85391V20.3403L14.3789 26.0899L4.26946 20.3403V8.85391Z" stroke="#FBFBFB"/>
<g clip-path="url(#clip0)">
<path d="M18.1984 17.7303L16.2593 17.2626L16.0943 16.6259C16.6131 16.1304 16.9684 15.4498 17.0737 14.7516C17.3612 14.6735 17.5839 14.4357 17.6224 14.1374L17.7489 13.1609C17.7758 12.9549 17.7099 12.7464 17.5682 12.5902C17.4852 12.4984 17.3804 12.4291 17.2645 12.3866L17.3111 11.4672L17.5004 11.2842C17.7854 10.9917 18.0218 10.4903 17.5277 9.76282C17.1481 9.20384 16.5033 8.92017 15.6104 8.92017C15.2581 8.92017 14.4472 8.92017 13.692 9.40937C11.5358 9.45283 11.2422 10.419 11.2422 11.3613C11.2422 11.5806 11.2974 12.0742 11.3338 12.372C11.2037 12.4115 11.0858 12.4847 10.9937 12.5858C10.8494 12.7435 10.7826 12.953 10.8094 13.1614L10.936 14.1379C10.9775 14.4562 11.228 14.7067 11.5449 14.7663C11.6496 15.4376 11.9868 16.0962 12.4757 16.5835L12.2996 17.2636L10.3604 17.7313C9.09098 18.0364 8.2052 19.131 8.2052 20.3936C8.2052 20.5283 8.31859 20.6377 8.45829 20.6377H20.1001C20.2398 20.6377 20.3532 20.5274 20.3532 20.3926C20.3532 19.131 19.4674 18.0364 18.1984 17.7303Z" fill="white"/>
</g>
<defs>
<clipPath id="clip0">
<rect x="8.24182" y="8.92017" width="11.5225" height="11.1142" fill="white"/>
</clipPath>
</defs>
</svg>
