<svg width="21" height="21" viewBox="0 0 21 21" fill="none" xmlns="http://www.w3.org/2000/svg">
<g clip-path="url(#clip0)">
<path d="M20.8432 10.0896C20.6558 9.88054 16.1471 4.96289 10.5 4.96289C4.85291 4.96289 0.344306 9.88054 0.156823 10.0896C-0.0522744 10.3233 -0.0522744 10.6767 0.156823 10.9104C0.344306 11.1195 4.85299 16.0371 10.5 16.0371C16.1471 16.0371 20.6557 11.1195 20.8432 10.9104C21.0523 10.6767 21.0523 10.3233 20.8432 10.0896ZM10.5 14.8066C8.12558 14.8066 6.19338 12.8744 6.19338 10.5C6.19338 8.12556 8.12558 6.19336 10.5 6.19336C12.8745 6.19336 14.8067 8.12556 14.8067 10.5C14.8067 12.8744 12.8745 14.8066 10.5 14.8066Z" fill="#BEBEBE"/>
<path d="M11.1152 9.26953C11.1152 8.65061 11.4225 8.10612 11.8899 7.77123C11.4705 7.55651 11.0026 7.42383 10.5 7.42383C8.80388 7.42383 7.42383 8.80388 7.42383 10.5C7.42383 12.1961 8.80388 13.5762 10.5 13.5762C12.0186 13.5762 13.2754 12.4674 13.5238 11.0185C12.2848 11.4174 11.1152 10.4804 11.1152 9.26953Z" fill="#BEBEBE"/>
</g>
<defs>
<clipPath id="clip0">
<rect width="21" height="21" fill="white"/>
</clipPath>
</defs>
</svg>
