<svg width="16" height="16" viewBox="0 0 16 16" fill="none" xmlns="http://www.w3.org/2000/svg">
<path d="M10.8888 2.67773H9.67046C9.58809 3.39445 9.26959 4.05742 8.75265 4.57433L4.39343 8.93348L1.58159 6.12164C1.39787 6.65455 1.30225 7.21711 1.30225 7.78902C1.30225 10.6074 3.59518 12.9003 6.41359 12.9003H7.17746L10.5086 16.0005V12.9004H10.8887C13.7072 12.9004 16.0001 10.6075 16.0001 7.78908C16.0001 4.9707 13.7072 2.67773 10.8888 2.67773ZM7.27143 8.44345H6.27978V7.50514H7.27143V8.44345ZM9.30468 8.44345H8.31303V7.50514H9.30468V8.44345ZM11.338 8.44345H10.3463V7.50514H11.338V8.44345Z" fill="#514B4B"/>
<path d="M8.11175 3.93297C9.01025 3.03444 9.01025 1.57244 8.11175 0.673906C7.21319 -0.224594 5.75122 -0.224594 4.85269 0.673906L4.39337 1.13325L3.93403 0.673906C3.0355 -0.224656 1.5735 -0.224625 0.674969 0.673937C0.239719 1.10916 0 1.68788 0 2.30344C0 2.919 0.239688 3.49769 0.674969 3.93297L4.39334 7.65134L8.11175 3.93297Z" fill="#514B4B"/>
</svg>
