<svg width="27" height="27" viewBox="0 0 27 27" fill="none" xmlns="http://www.w3.org/2000/svg">
<path d="M26.264 10.4002C26.264 10.4003 26.2638 10.4007 26.2633 10.4014L26.264 10.4002ZM26.1556 10.4997L20.0903 16.7757L19.8287 17.0464L19.8894 17.4179L21.3191 26.1647L13.9038 22.0821L13.5421 21.8829L13.1803 22.0821L5.68783 26.2071C5.66772 26.2164 5.654 26.2198 5.64667 26.2212C5.64226 26.222 5.63929 26.2223 5.63763 26.2223L5.63496 26.2223C5.63487 26.2223 5.63486 26.2223 5.6349 26.2223C5.63494 26.2223 5.63503 26.2223 5.63517 26.2223L5.6349 26.2221L5.63282 26.2206C5.63178 26.2198 5.63069 26.2188 5.62963 26.2176L5.63322 26.1963L7.10978 17.4213L7.17288 17.0463L6.90767 16.7738L0.790486 10.4879L0.765164 10.4619L0.737447 10.4384C0.733633 10.4352 0.730505 10.4323 0.72797 10.4298C0.729377 10.4268 0.731158 10.4235 0.733381 10.42C0.737907 10.4127 0.743278 10.4062 0.748807 10.4009C0.75155 10.3983 0.753948 10.3963 0.755928 10.3948L9.13561 9.17974L9.52452 9.12335L9.69952 8.77149L13.604 0.921047L17.3368 8.75995L17.5062 9.11581L17.8954 9.17808L26.1556 10.4997Z" fill="#FFDC25" stroke="#FFDC25" stroke-width="1.5"/>
</svg>
