<svg width="15" height="15" viewBox="0 0 15 15" fill="none" xmlns="http://www.w3.org/2000/svg">
<path d="M6.25116 0.905457H8.7581V1.32729H9.66344V0.846405C9.66356 0.379715 9.28407 0 8.81761 0H6.19165C5.72519 0 5.3457 0.379715 5.3457 0.846405V1.32729H6.25116V0.905457Z" fill="#414141"/>
<path d="M11.7543 4.91406H3.25498C3.02209 4.91406 2.83876 5.11273 2.85752 5.34493L3.56809 14.1312C3.60768 14.6217 4.01681 14.9995 4.50833 14.9995H10.5008C10.9923 14.9995 11.4015 14.6217 11.441 14.1311L12.1516 5.34493C12.1705 5.11273 11.9872 4.91406 11.7543 4.91406ZM5.31297 14.0624C5.30347 14.0629 5.29397 14.0633 5.28459 14.0633C5.04724 14.0633 4.84799 13.8784 4.83323 13.6384L4.38794 6.42525C4.37261 6.17566 4.56246 5.96085 4.81195 5.94552C5.06063 5.93041 5.27635 6.11981 5.29168 6.36952L5.73686 13.5826C5.75231 13.8322 5.56245 14.0469 5.31297 14.0624ZM7.96239 13.6105C7.96239 13.8605 7.75971 14.0632 7.50966 14.0632C7.25961 14.0632 7.05693 13.8605 7.05693 13.6105V6.39733C7.05693 6.14728 7.25961 5.9446 7.50966 5.9446C7.7596 5.9446 7.96239 6.14728 7.96239 6.39733V13.6105ZM10.6213 6.424L10.1962 13.6371C10.1821 13.8776 9.9825 14.0632 9.74469 14.0632C9.73577 14.0632 9.72672 14.0629 9.71768 14.0625C9.46809 14.0477 9.27766 13.8335 9.29242 13.5839L9.71745 6.37067C9.7321 6.12107 9.94565 5.93064 10.1959 5.9454C10.4455 5.96005 10.636 6.1744 10.6213 6.424Z" fill="#414141"/>
<path d="M13.3198 3.51714L13.0225 2.62587C12.9441 2.39092 12.7241 2.23242 12.4763 2.23242H2.53268C2.28503 2.23242 2.06496 2.39092 1.98668 2.62587L1.68936 3.51714C1.63203 3.68903 1.70664 3.86435 1.84592 3.95178C1.90268 3.98737 1.96986 4.00877 2.04367 4.00877H12.9655C13.0393 4.00877 13.1066 3.98737 13.1632 3.95167C13.3025 3.86423 13.3771 3.68891 13.3198 3.51714Z" fill="#414141"/>
</svg>
