<svg width="17" height="13" viewBox="0 0 17 13" fill="none" xmlns="http://www.w3.org/2000/svg">
<path d="M4.58707 6.35117C5.20827 6.06476 5.80248 5.92149 6.36936 5.92149H13.8971V4.47384C13.8971 3.91893 13.698 3.44219 13.2997 3.04408C12.9015 2.646 12.4252 2.44699 11.8702 2.44699H6.94836V2.15748C6.94836 1.60257 6.74935 1.12606 6.35127 0.728074C5.95316 0.329994 5.47665 0.130859 4.92174 0.130859H2.02662C1.47171 0.130859 0.995198 0.329963 0.597087 0.728074C0.198976 1.12609 0 1.6026 0 2.15751V10.843C0 10.8672 0.00155277 10.905 0.00456324 10.9563C0.00754202 11.0075 0.00912648 11.0453 0.00912648 11.0693L0.0543152 11.0153L3.10332 7.43231C3.47123 6.99798 3.96584 6.63751 4.58707 6.35117Z" fill="#FFFFFF"/>
<path d="M16.7605 7.19699C16.6007 7.11846 16.4183 7.0791 16.2131 7.0791H6.36951C5.97143 7.0791 5.53865 7.18624 5.07127 7.40043C4.60385 7.61484 4.24041 7.87532 3.98113 8.18319L0.941189 11.7659C0.754159 11.9771 0.660645 12.1762 0.660645 12.3632C0.660645 12.5441 0.740596 12.6739 0.900405 12.7521C1.06021 12.8307 1.24265 12.8699 1.44777 12.8699H11.2917C11.6897 12.8699 12.1223 12.7628 12.5898 12.5487C13.0572 12.3346 13.4205 12.0737 13.6798 11.7659L16.7198 8.18319C16.9068 7.97204 17.0001 7.77316 17.0001 7.58588C17.0003 7.40503 16.9204 7.27542 16.7605 7.19699Z" fill="#FFFFFF"/>
</svg>
