<svg width="29" height="29" viewBox="0 0 29 29" fill="none" xmlns="http://www.w3.org/2000/svg">
<path d="M14.6751 0.597534L26.8368 7.51436V21.348L14.6751 28.2648L2.51349 21.348V7.51436L14.6751 0.597534Z" fill="#D6D6D6"/>
<path d="M4.68767 8.80813L14.7971 3.05849L24.9065 8.80813V20.2945L14.7971 26.0441L4.68767 20.2945V8.80813Z" stroke="#FBFBFB"/>
<path d="M18.4723 17.335L16.5564 16.863L16.4458 16.427C17.7676 16.2078 18.4478 15.8176 18.4778 15.8004C18.5488 15.7595 18.5928 15.6851 18.5988 15.6043C18.6043 15.5235 18.5678 15.4442 18.5033 15.3934C18.4943 15.3865 17.6006 14.6594 17.6006 12.14C17.6006 10.0151 17.096 8.93771 16.1003 8.93771H15.9527C15.5936 8.59582 15.3241 8.44507 14.5999 8.44507C13.6602 8.44507 11.5993 9.37569 11.5993 12.14C11.5993 14.6594 10.7056 15.3865 10.6991 15.3915C10.6326 15.4407 10.5951 15.519 10.5991 15.6008C10.6036 15.6831 10.6486 15.757 10.7201 15.7994C10.7501 15.8171 11.4237 16.2092 12.7535 16.428L12.643 16.863L10.7271 17.335C9.47382 17.6439 8.59863 18.7484 8.59863 20.0224C8.59863 20.1583 8.71066 20.2687 8.84869 20.2687H20.3512C20.4892 20.2687 20.6013 20.1574 20.6013 20.0214C20.6012 18.7484 19.7261 17.6439 18.4723 17.335Z" fill="white"/>
</svg>
