<svg width="33" height="36" viewBox="0 0 33 36" fill="none" xmlns="http://www.w3.org/2000/svg">
<g filter="url(#filter0_d)">
<path d="M16.6751 0.0681152L28.8368 6.98494V20.8186L16.6751 27.7354L4.51349 20.8186V6.98494L16.6751 0.0681152Z" fill="#FFC6CD"/>
<path d="M6.68767 8.27871L16.7971 2.52907L26.9065 8.27871V19.7651L16.7971 25.5147L6.68767 19.7651V8.27871Z" stroke="#FBFBFB"/>
<path d="M20.4723 16.8055L18.5564 16.3336L18.4458 15.8976C19.7676 15.6784 20.4478 15.2882 20.4778 15.2709C20.5488 15.23 20.5928 15.1557 20.5988 15.0749C20.6043 14.9941 20.5678 14.9148 20.5033 14.864C20.4943 14.8571 19.6006 14.13 19.6006 11.6105C19.6006 9.48572 19.096 8.40829 18.1003 8.40829H17.9527C17.5936 8.0664 17.3241 7.91565 16.5999 7.91565C15.6602 7.91565 13.5993 8.84628 13.5993 11.6105C13.5993 14.13 12.7056 14.8571 12.6991 14.862C12.6326 14.9113 12.5951 14.9896 12.5991 15.0714C12.6036 15.1537 12.6486 15.2276 12.7201 15.2699C12.7501 15.2877 13.4237 15.6798 14.7535 15.8986L14.643 16.3336L12.7271 16.8055C11.4738 17.1144 10.5986 18.219 10.5986 19.4929C10.5986 19.6289 10.7107 19.7393 10.8487 19.7393H22.3512C22.4892 19.7393 22.6013 19.6279 22.6013 19.492C22.6012 18.219 21.7261 17.1144 20.4723 16.8055Z" fill="white"/>
</g>
<defs>
<filter id="filter0_d" x="0.51355" y="0.0681152" width="32.3233" height="35.6673" filterUnits="userSpaceOnUse" color-interpolation-filters="sRGB">
<feFlood flood-opacity="0" result="BackgroundImageFix"/>
<feColorMatrix in="SourceAlpha" type="matrix" values="0 0 0 0 0 0 0 0 0 0 0 0 0 0 0 0 0 0 127 0"/>
<feOffset dy="4"/>
<feGaussianBlur stdDeviation="2"/>
<feColorMatrix type="matrix" values="0 0 0 0 0 0 0 0 0 0 0 0 0 0 0 0 0 0 0.25 0"/>
<feBlend mode="normal" in2="BackgroundImageFix" result="effect1_dropShadow"/>
<feBlend mode="normal" in="SourceGraphic" in2="effect1_dropShadow" result="shape"/>
</filter>
</defs>
</svg>
