<svg width="48" height="48" viewBox="0 0 48 48" fill="none" xmlns="http://www.w3.org/2000/svg">
<path d="M41.5927 8.8C41.5946 8.5889 41.5129 8.3856 41.3655 8.2344L33.3655 0.2344C33.215 0.086 33.0112 0.0042 32.7999 0.0072V0H8.7999C7.4744 0 6.3999 1.0745 6.3999 2.4V45.6C6.3999 46.9255 7.4744 48 8.7999 48H39.1999C40.5254 48 41.5999 46.9255 41.5999 45.6V8.8H41.5927ZM33.5999 2.7312L38.8687 8H34.3999C33.9581 8 33.5999 7.6418 33.5999 7.2V2.7312ZM39.9999 45.6C39.9999 46.0418 39.6417 46.4 39.1999 46.4H8.7999C8.3581 46.4 7.9999 46.0418 7.9999 45.6V2.4C7.9999 1.9582 8.3581 1.6 8.7999 1.6H31.9999V7.2C31.9999 8.5255 33.0744 9.6 34.3999 9.6H39.9999V45.6Z" fill="#99E7B7"/>
<path d="M14.4 21.6001C13.0745 21.6001 12 22.6746 12 24.0001C12 25.3256 13.0745 26.4001 14.4 26.4001C15.7255 26.4001 16.8 25.3256 16.8 24.0001C16.8 22.6746 15.7255 21.6001 14.4 21.6001ZM14.4 24.8001C13.9582 24.8001 13.6 24.4419 13.6 24.0001C13.6 23.5583 13.9582 23.2001 14.4 23.2001C14.8418 23.2001 15.2 23.5583 15.2 24.0001C15.2 24.4419 14.8418 24.8001 14.4 24.8001Z" fill="#99E7B7"/>
<path d="M36 23.2002H20V24.8002H36V23.2002Z" fill="#99E7B7"/>
<path d="M14.4 13.6001C13.0745 13.6001 12 14.6746 12 16.0001C12 17.3256 13.0745 18.4001 14.4 18.4001C15.7255 18.4001 16.8 17.3256 16.8 16.0001C16.8 14.6746 15.7255 13.6001 14.4 13.6001ZM14.4 16.8001C13.9582 16.8001 13.6 16.4419 13.6 16.0001C13.6 15.5583 13.9582 15.2001 14.4 15.2001C14.8418 15.2001 15.2 15.5583 15.2 16.0001C15.2 16.4419 14.8418 16.8001 14.4 16.8001Z" fill="#99E7B7"/>
<path d="M36 15.2002H20V16.8002H36V15.2002Z" fill="#99E7B7"/>
<path d="M14.4 29.6001C13.0745 29.6001 12 30.6746 12 32.0001C12 33.3256 13.0745 34.4001 14.4 34.4001C15.7255 34.4001 16.8 33.3256 16.8 32.0001C16.8 30.6746 15.7255 29.6001 14.4 29.6001ZM14.4 32.8001C13.9582 32.8001 13.6 32.4419 13.6 32.0001C13.6 31.5583 13.9582 31.2001 14.4 31.2001C14.8418 31.2001 15.2 31.5583 15.2 32.0001C15.2 32.4419 14.8418 32.8001 14.4 32.8001Z" fill="#99E7B7"/>
<path d="M36 31.2002H20V32.8002H36V31.2002Z" fill="#99E7B7"/>
<path d="M14.4 37.6001C13.0745 37.6001 12 38.6746 12 40.0001C12 41.3256 13.0745 42.4001 14.4 42.4001C15.7255 42.4001 16.8 41.3256 16.8 40.0001C16.8 38.6746 15.7255 37.6001 14.4 37.6001ZM14.4 40.8001C13.9582 40.8001 13.6 40.4419 13.6 40.0001C13.6 39.5583 13.9582 39.2001 14.4 39.2001C14.8418 39.2001 15.2 39.5583 15.2 40.0001C15.2 40.4419 14.8418 40.8001 14.4 40.8001Z" fill="#99E7B7"/>
<path d="M36 39.2002H20V40.8002H36V39.2002Z" fill="#99E7B7"/>
</svg>
