<svg width="56" height="56" viewBox="0 0 56 56" fill="none" xmlns="http://www.w3.org/2000/svg">
<path d="M52.5658 4.48438H3.4342C1.54065 4.48438 0 6.02502 0 7.91858V40.9041C0 42.7981 1.54065 44.3387 3.4342 44.3387H9.63525C10.0916 44.3387 10.4615 43.9688 10.4615 43.5125C10.4615 43.0562 10.0916 42.6866 9.63525 42.6866H3.4342C2.45154 42.6866 1.65216 41.8872 1.65216 40.9041V7.91858C1.65216 6.93591 2.45154 6.13654 3.4342 6.13654H52.5658C53.5485 6.13654 54.3483 6.93591 54.3483 7.91858V40.9041C54.3483 41.8872 53.5485 42.6866 52.5658 42.6866H37.0862C36.2787 42.6866 35.52 43.001 34.9492 43.5718L28.969 49.552C28.4345 50.0861 27.5655 50.0861 27.031 49.552L21.0508 43.5718C20.48 43.001 19.7213 42.6866 18.9138 42.6866H13.0771C12.6208 42.6866 12.2509 43.0562 12.2509 43.5125C12.2509 43.9688 12.6208 44.3387 13.0771 44.3387H18.9138C19.2799 44.3387 19.6238 44.481 19.8823 44.7399L25.8629 50.7205C26.4521 51.3093 27.2263 51.6041 28 51.6041C28.7737 51.6041 29.5479 51.3093 30.1371 50.7205L36.1177 44.7399C36.3762 44.481 36.7201 44.3387 37.0862 44.3387H52.5658C54.4594 44.3387 56 42.7981 56 40.9041V7.91858C56 6.02502 54.4594 4.48438 52.5658 4.48438Z" fill="#A9FFD5"/>
<path d="M50.7171 12.7593C51.1734 12.7593 51.543 12.3897 51.543 11.9334V10.0591C51.543 9.31482 50.938 8.70984 50.1937 8.70984H5.80627C5.06201 8.70984 4.45703 9.31482 4.45703 10.0591V38.6483C4.45703 39.3921 5.06201 39.9975 5.80627 39.9975H19.7221C20.8488 39.9975 21.9083 40.4363 22.7047 41.2327L27.1011 45.629C27.3557 45.8837 27.6949 46.0242 28.0551 46.0242C28.4157 46.0242 28.7545 45.8841 29.0092 45.629L33.4051 41.2331C34.2019 40.4363 35.261 39.9975 36.3881 39.9975H50.1937C50.938 39.9975 51.5434 39.3921 51.5434 38.6483V15.3475C51.5434 14.8912 51.1734 14.5217 50.7171 14.5217C50.2608 14.5217 49.8912 14.8912 49.8912 15.3475V38.3453H36.3881C34.8197 38.3453 33.3457 38.9559 32.237 40.065L28.0551 44.2465L23.8728 40.0646C22.7645 38.9559 21.2901 38.3453 19.7221 38.3453H6.10876V10.3616H49.8912V11.9334C49.8912 12.3897 50.2608 12.7593 50.7171 12.7593Z" fill="#A9FFD5"/>
<g transform="translate(16,12)">
    <path d="M21.0913 14.2402C21.412 13.8822 21.6074 13.4096 21.6074 12.8926C21.6074 11.7781 20.7004 10.8711 19.5859 10.8711H15.6625C16.051 9.69189 16.2168 8.12727 16.2168 7.45658V6.7832C16.2168 5.29719 15.0075 4.08789 13.5215 4.08789H12.8477C12.5386 4.08789 12.2691 4.29813 12.194 4.5982L11.827 6.0667C11.3127 8.12322 9.67977 10.3922 7.9898 10.8046C7.69377 10.0553 6.96289 9.52344 6.10938 9.52344H2.06641C1.69445 9.52344 1.39258 9.82531 1.39258 10.1973V22.3262C1.39258 22.6981 1.69445 23 2.06641 23H6.10938C6.91303 23 7.60842 22.5288 7.9341 21.8478L10.2494 22.6195C11.0063 22.872 11.7951 23 12.5934 23H18.2383C19.3528 23 20.2598 22.093 20.2598 20.9785C20.2598 20.7157 20.2095 20.4642 20.1178 20.2337C20.9749 19.9997 21.6074 19.214 21.6074 18.2832C21.6074 17.7662 21.412 17.2936 21.0913 16.9355C21.412 16.5775 21.6074 16.1049 21.6074 15.5879C21.6074 15.0708 21.412 14.5983 21.0913 14.2402ZM6.7832 20.9785C6.7832 21.35 6.48088 21.6523 6.10938 21.6523H2.74023V10.8711H6.10938C6.48088 10.8711 6.7832 11.1734 6.7832 11.5449V20.9785ZM18.2383 14.9141H19.5859C19.9574 14.9141 20.2598 15.2164 20.2598 15.5879C20.2598 15.9594 19.9574 16.2617 19.5859 16.2617H18.2383C17.8663 16.2617 17.5645 16.5636 17.5645 16.9355C17.5645 17.3075 17.8663 17.6094 18.2383 17.6094H19.5859C19.9574 17.6094 20.2598 17.9117 20.2598 18.2832C20.2598 18.6547 19.9574 18.957 19.5859 18.957H18.2383C17.8663 18.957 17.5645 19.2589 17.5645 19.6309C17.5645 20.0028 17.8663 20.3047 18.2383 20.3047C18.6098 20.3047 18.9121 20.607 18.9121 20.9785C18.9121 21.35 18.6098 21.6523 18.2383 21.6523H12.5934C11.9402 21.6523 11.2947 21.5477 10.6752 21.341L8.13086 20.4929V12.155C9.18787 11.9542 10.2224 11.2848 11.1563 10.1892C12.0683 9.11914 12.8077 7.70051 13.1343 6.39373L13.3737 5.43555H13.5215C14.2645 5.43555 14.8691 6.0402 14.8691 6.7832V7.45658C14.8691 8.36131 14.5861 10.0966 14.2241 10.8711H12.8477C12.4757 10.8711 12.1738 11.173 12.1738 11.5449C12.1738 11.9169 12.4757 12.2188 12.8477 12.2188H19.5859C19.9574 12.2188 20.2598 12.5211 20.2598 12.8926C20.2598 13.2641 19.9574 13.5664 19.5859 13.5664H18.2383C17.8663 13.5664 17.5645 13.8683 17.5645 14.2402C17.5645 14.6122 17.8663 14.9141 18.2383 14.9141Z" fill="#A9FFD5"/>
    <path d="M4.76172 20.3047C5.13386 20.3047 5.43555 20.003 5.43555 19.6309C5.43555 19.2587 5.13386 18.957 4.76172 18.957C4.38957 18.957 4.08789 19.2587 4.08789 19.6309C4.08789 20.003 4.38957 20.3047 4.76172 20.3047Z" fill="#A9FFD5"/>
    <path d="M14.1953 0C13.8232 0 13.5215 0.301695 13.5215 0.673828V2.06641C13.5215 2.43854 13.8232 2.74023 14.1953 2.74023C14.5674 2.74023 14.8691 2.43854 14.8691 2.06641V0.673828C14.8691 0.301695 14.5674 0 14.1953 0Z" fill="#A9FFD5"/>
    <path d="M11.3366 2.97149L10.3837 2.01856C10.1206 1.75541 9.69391 1.75541 9.43076 2.01856C9.16761 2.28171 9.16761 2.70834 9.43076 2.97149L10.3837 3.92442C10.6468 4.18752 11.0735 4.18757 11.3366 3.92442C11.5998 3.66126 11.5998 3.23464 11.3366 2.97149Z" fill="#A9FFD5"/>
    <path d="M18.9602 2.01856C18.697 1.75541 18.2704 1.75541 18.0072 2.01856L17.0543 2.97144C16.7911 3.2346 16.7911 3.66122 17.0543 3.92437C17.3174 4.18753 17.7441 4.18757 18.0072 3.92442L18.9602 2.97149C19.2233 2.70834 19.2233 2.28171 18.9602 2.01856Z" fill="#A9FFD5"/>
</g>
</svg>