<svg width="21" height="21" viewBox="0 0 21 21" fill="none" xmlns="http://www.w3.org/2000/svg">
<g clip-path="url(#clip0)">
<path d="M10.5 14C10.3207 14 10.1492 13.9265 10.0249 13.797L5.43117 8.9845C5.03305 8.56713 5.33142 7.875 5.9063 7.875H8.31255V6.78125C8.31255 3.04238 11.3549 0 15.0938 0C15.456 0 15.75 0.294 15.75 0.65625C15.75 1.0185 15.456 1.3125 15.0938 1.3125C13.7664 1.3125 12.6875 2.39138 12.6875 3.71875V7.875H15.0938C15.6687 7.875 15.967 8.56713 15.5689 8.9845L10.9752 13.797C10.8509 13.9265 10.6794 14 10.5 14Z" fill="#009239"/>
<path d="M18.375 15.75H2.625C1.17775 15.75 0 16.9277 0 18.375C0 19.8222 1.17775 21 2.625 21H18.375C19.8223 21 21 19.8222 21 18.375C21 16.9277 19.8223 15.75 18.375 15.75Z" fill="#009239"/>
</g>
<defs>
<clipPath id="clip0">
<rect width="21" height="21" fill="white"/>
</clipPath>
</defs>
</svg>
