<svg width="45" height="45" viewBox="0 0 45 45" fill="none" xmlns="http://www.w3.org/2000/svg">
<path d="M45 26.7187C45 25.5919 44.5518 24.5418 43.7794 23.7674C44.655 22.8093 45.1012 21.5249 44.9793 20.1881C44.76 17.8049 42.6131 15.9374 40.0894 15.9374H28.5075C29.0812 14.1955 30 11.0025 30 8.43747C30 4.3706 26.5444 0.9375 24.375 0.9375C22.4287 0.9375 21.0356 2.03438 20.9775 2.07938C20.7543 2.25753 20.6249 2.52753 20.6249 2.81247V9.17057L15.2231 20.8687L14.9999 20.9831V20.6249C14.9999 20.1074 14.5799 19.6874 14.0624 19.6874H4.68747C2.1019 19.6875 0 21.7894 0 24.3749V39.375C0 41.9606 2.1019 44.0624 4.68747 44.0624H10.3125C12.3393 44.0624 14.0718 42.7687 14.7243 40.9631C16.2844 41.7656 18.3843 42.1875 19.6875 42.1875H36.8982C38.94 42.1875 40.7269 40.8112 41.1469 38.9137C41.3625 37.935 41.2369 36.9506 40.8094 36.0956C42.1931 35.3999 43.125 33.9693 43.125 32.3437C43.125 31.68 42.9732 31.0443 42.6863 30.4706C44.07 29.7731 45 28.3443 45 26.7187ZM41.0456 29.0324C40.6838 29.0756 40.3781 29.3212 40.2619 29.6681C40.1476 30.015 40.2432 30.3955 40.5094 30.6468C40.9857 31.095 41.2501 31.6987 41.2501 32.3437C41.2501 33.5268 40.3557 34.5206 39.1726 34.6574C38.8107 34.7006 38.5051 34.9462 38.3889 35.2931C38.2745 35.64 38.3701 36.0205 38.6364 36.2718C39.2533 36.853 39.5008 37.6687 39.3151 38.5087C39.0845 39.555 38.0682 40.3125 36.8982 40.3125H19.6875C18.165 40.3125 15.6112 39.5981 14.7262 38.7112C14.4581 38.445 14.0531 38.3663 13.7043 38.5087C13.3538 38.6531 13.125 38.9963 13.125 39.375C13.125 40.9256 11.8631 42.1875 10.3125 42.1875H4.68747C3.13682 42.1875 1.87497 40.9256 1.87497 39.375V24.3749C1.87497 22.8243 3.13682 21.5624 4.68747 21.5624H13.125V22.5C13.125 22.8244 13.2937 23.1262 13.5712 23.2987C13.845 23.4637 14.1899 23.4806 14.4824 23.3381L16.3574 22.4006C16.5468 22.3068 16.6987 22.1493 16.7887 21.9562L22.4137 9.76866C22.4699 9.64491 22.4999 9.50991 22.4999 9.37491V3.32057C22.89 3.10497 23.5669 2.81247 24.375 2.81247C25.4025 2.81247 28.125 5.36622 28.125 8.43747C28.125 11.7375 26.3288 16.4943 26.3119 16.5413C26.2032 16.8281 26.2406 17.1525 26.415 17.4075C26.5912 17.6606 26.88 17.8125 27.1875 17.8125H40.0894C41.6531 17.8125 42.9806 18.9319 43.1118 20.3606C43.2113 21.4294 42.6974 22.4457 41.7769 23.0138C41.49 23.19 41.3194 23.5088 41.3325 23.8481C41.3456 24.1875 41.5406 24.4912 41.8406 24.6469C42.6337 25.05 43.1249 25.845 43.1249 26.7187C43.125 27.9018 42.2307 28.8956 41.0456 29.0324Z" fill="#99E7B7"/>
</svg>
