<svg width="15" height="14" viewBox="0 0 15 14" fill="none" xmlns="http://www.w3.org/2000/svg">
<path d="M7.50092 0.725586C3.38151 0.725586 0.000976562 3.65539 0.000976562 7.22554C0.000976562 8.38708 0.363613 9.52405 1.05153 10.5264L0.0237109 13.2241C-0.029082 13.361 0.0121094 13.512 0.129707 13.6139C0.248154 13.7166 0.423584 13.7517 0.579473 13.7058L3.69221 12.815C4.84879 13.4112 6.16067 13.7255 7.50092 13.7255C11.6203 13.7255 15.0009 10.7957 15.0009 7.22554C15.0009 3.65539 11.6203 0.725586 7.50092 0.725586ZM7.50092 12.1767C6.77395 12.1767 6.18256 11.6641 6.18256 11.0341C6.18256 10.404 6.77395 9.8915 7.50092 9.8915C8.22789 9.8915 8.81928 10.404 8.81928 11.0341C8.81928 11.6641 8.22789 12.1767 7.50092 12.1767ZM9.35356 6.69703L8.37982 7.54094V8.36811C8.37982 8.78802 7.98543 9.12983 7.50092 9.12983C7.01641 9.12983 6.62201 8.78802 6.62201 8.36811V7.54094C6.62201 7.13405 6.80482 6.7517 7.13699 6.46382L8.11073 5.61991C8.33582 5.42483 8.37982 5.22729 8.37982 4.97534C8.37982 4.53608 7.96741 4.17866 7.46058 4.17866C6.99839 4.17866 6.62201 4.50485 6.62201 4.90542C6.62201 5.32533 6.22762 5.66713 5.74311 5.66713C5.25859 5.66713 4.8642 5.32533 4.8642 4.90542C4.8642 3.66465 6.02893 2.65525 7.46055 2.65525C8.93685 2.65525 10.1376 3.69591 10.1376 4.97534C10.1376 5.69517 9.86588 6.25302 9.35356 6.69703Z" fill="#FFFFFF"/>
</svg>
