<svg width="33" height="36" viewBox="0 0 33 36" fill="none" xmlns="http://www.w3.org/2000/svg">
<g filter="url(#filter0_d)">
<path d="M16.257 0.0681152L28.4187 6.98494V20.8186L16.257 27.7354L4.0954 20.8186V6.98494L16.257 0.0681152Z" fill="#9092FF"/>
<path d="M6.26946 8.27847L16.3789 2.52882L26.4883 8.27847V19.7648L16.3789 25.5145L6.26946 19.7648V8.27847Z" stroke="#FBFBFB"/>
<g clip-path="url(#clip0)">
<path d="M20.1984 17.1548L18.2593 16.6871L18.0943 16.0505C18.6131 15.5549 18.9684 14.8743 19.0737 14.1761C19.3612 14.098 19.5839 13.8603 19.6224 13.562L19.7489 12.5855C19.7758 12.3794 19.7099 12.171 19.5682 12.0147C19.4852 11.9229 19.3804 11.8536 19.2645 11.8111L19.3111 10.8918L19.5004 10.7087C19.7854 10.4163 20.0218 9.91485 19.5277 9.18738C19.1481 8.6284 18.5033 8.34473 17.6104 8.34473C17.2581 8.34473 16.4472 8.34473 15.692 8.83393C13.5358 8.87739 13.2422 9.84359 13.2422 10.7859C13.2422 11.0051 13.2974 11.4987 13.3338 11.7965C13.2037 11.8361 13.0858 11.9093 12.9937 12.0104C12.8494 12.1681 12.7826 12.3775 12.8094 12.586L12.936 13.5625C12.9775 13.8808 13.228 14.1312 13.5449 14.1908C13.6496 14.8621 13.9868 15.5208 14.4757 16.008L14.2996 16.6881L12.3604 17.1558C11.091 17.461 10.2052 18.5556 10.2052 19.8181C10.2052 19.9529 10.3186 20.0623 10.4583 20.0623H22.1001C22.2398 20.0623 22.3532 19.9519 22.3532 19.8172C22.3532 18.5556 21.4674 17.461 20.1984 17.1548Z" fill="white"/>
</g>
</g>
<defs>
<filter id="filter0_d" x="0.095459" y="0.0681152" width="32.3233" height="35.6673" filterUnits="userSpaceOnUse" color-interpolation-filters="sRGB">
<feFlood flood-opacity="0" result="BackgroundImageFix"/>
<feColorMatrix in="SourceAlpha" type="matrix" values="0 0 0 0 0 0 0 0 0 0 0 0 0 0 0 0 0 0 127 0"/>
<feOffset dy="4"/>
<feGaussianBlur stdDeviation="2"/>
<feColorMatrix type="matrix" values="0 0 0 0 0 0 0 0 0 0 0 0 0 0 0 0 0 0 0.25 0"/>
<feBlend mode="normal" in2="BackgroundImageFix" result="effect1_dropShadow"/>
<feBlend mode="normal" in="SourceGraphic" in2="effect1_dropShadow" result="shape"/>
</filter>
<clipPath id="clip0">
<rect x="10.2418" y="8.34473" width="11.5225" height="11.1142" fill="white"/>
</clipPath>
</defs>
</svg>
