<svg width="5" height="13" viewBox="0 0 5 13" fill="none" xmlns="http://www.w3.org/2000/svg">
<path d="M2.50008 10.3459C2.99775 10.3459 3.41201 9.96456 3.45393 9.46862L4.10096 1.74096C4.13862 1.29278 3.98666 0.849724 3.68244 0.518812C3.3786 0.188326 2.94951 0 2.50008 0C2.05065 0 1.62156 0.188326 1.31769 0.518812C1.01342 0.849724 0.86154 1.29278 0.899205 1.74096L1.54623 9.46862C1.58815 9.96456 2.00241 10.3459 2.50008 10.3459Z" fill="#414141"/>
<path d="M2.5 10.915C1.92403 10.915 1.45728 11.3818 1.45728 11.9578C1.45728 12.5337 1.92403 13.0004 2.5 13.0004C3.07597 13.0004 3.54272 12.5337 3.54272 11.9578C3.54272 11.3818 3.07597 10.915 2.5 10.915Z" fill="#414141"/>
</svg>
