<svg width="12" height="12" viewBox="0 0 12 12" fill="none" xmlns="http://www.w3.org/2000/svg">
<g clip-path="url(#clip0)">
<path d="M11.4545 0H7.0909C6.78966 0 6.54544 0.244219 6.54544 0.545461C6.54544 0.846703 6.78966 1.09092 7.0909 1.09092H10.1377L4.52342 6.70523C4.31039 6.91826 4.31039 7.26359 4.52342 7.47661C4.62989 7.58311 4.76949 7.63636 4.90908 7.63636C5.04867 7.63636 5.18829 7.58313 5.29479 7.47659L10.9091 1.8623V4.9091C10.9091 5.21034 11.1533 5.45456 11.4546 5.45456C11.7558 5.45456 12 5.21034 12 4.9091V0.545461C12 0.244219 11.7558 0 11.4545 0Z" fill="black"/>
<path d="M9.27272 5.45436C8.97148 5.45436 8.72726 5.69858 8.72726 5.99982V10.9089H1.0909V3.27254H6C6.30124 3.27254 6.54546 3.02832 6.54546 2.72708C6.54546 2.42584 6.30124 2.18164 6 2.18164H0.545461C0.244219 2.18164 0 2.42586 0 2.7271V11.4544C0 11.7556 0.244219 11.9998 0.545461 11.9998H9.27274C9.57398 11.9998 9.8182 11.7556 9.8182 11.4544V5.99982C9.81818 5.69858 9.57396 5.45436 9.27272 5.45436Z" fill="black"/>
</g>
<defs>
<clipPath id="clip0">
<rect width="12" height="12" fill="white"/>
</clipPath>
</defs>
</svg>
