<svg width="56" height="56" viewBox="0 0 56 56" fill="none" xmlns="http://www.w3.org/2000/svg">
<path d="M9.33324 23.7673H21.4666C21.9827 23.7673 22.3999 23.3492 22.3999 22.834C22.3999 22.3188 21.9827 21.9006 21.4666 21.9006H9.33324C8.8171 21.9006 8.3999 22.3188 8.3999 22.834C8.3999 23.3492 8.8171 23.7673 9.33324 23.7673Z" fill="#FFCDA3"/>
<path d="M33.5999 27.5006H9.33324C8.8171 27.5006 8.3999 27.9187 8.3999 28.4339C8.3999 28.9491 8.8171 29.3673 9.33324 29.3673H33.5999C34.116 29.3673 34.5332 28.9491 34.5332 28.4339C34.5332 27.9187 34.116 27.5006 33.5999 27.5006Z" fill="#FFCDA3"/>
<path d="M33.5999 33.1007H9.33324C8.8171 33.1007 8.3999 33.5188 8.3999 34.034C8.3999 34.5492 8.8171 34.9674 9.33324 34.9674H33.5999C34.116 34.9674 34.5332 34.5492 34.5332 34.034C34.5332 33.5188 34.116 33.1007 33.5999 33.1007Z" fill="#FFCDA3"/>
<path d="M50.4672 2.36599L18.6013 2.30066C15.5493 2.30066 13.0667 4.78333 13.0667 7.83533V12.6177L5.53467 12.6336C2.48267 12.6336 0 15.1163 0 18.1683V37.8999C0 40.9519 2.48267 43.4336 5.53467 43.4336H11.2V52.7669C11.2 53.1524 11.4371 53.4987 11.7973 53.6377C11.9065 53.6797 12.0204 53.7003 12.1333 53.7003C12.3909 53.7003 12.6439 53.5929 12.824 53.3951L21.8811 43.4317L37.3987 43.3683C40.4507 43.3683 42.9333 40.8856 42.9333 37.8345V37.7291L47.8427 43.1293C48.0228 43.3272 48.2757 43.4345 48.5333 43.4345C48.6463 43.4345 48.7601 43.414 48.8693 43.372C49.2296 43.2329 49.4667 42.8867 49.4667 42.5012V33.1679H50.4653C53.5173 33.1679 56 30.6852 56 27.6341V7.90066C56 4.84959 53.5183 2.36693 50.4672 2.36599ZM41.0667 37.8336C41.0667 39.8561 39.4212 41.5007 37.3949 41.5007L21.4629 41.566C21.2016 41.5669 20.9515 41.678 20.776 41.8712L13.0667 50.3524V42.4993C13.0667 41.9841 12.6495 41.566 12.1333 41.566H5.53467C3.51213 41.566 1.86667 39.9205 1.86667 37.8989V18.1673C1.86667 16.1448 3.51213 14.4993 5.53653 14.4993L14 14.4816C14.0009 14.4816 14.0009 14.4816 14.0019 14.4816L37.3987 14.4331C39.4212 14.4331 41.0667 16.0785 41.0667 18.1011V35.3127V37.8336ZM54.1333 27.6323C54.1333 29.6548 52.4879 31.2993 50.4653 31.2993H48.5333C48.0172 31.2993 47.6 31.7175 47.6 32.2327V40.0857L42.9333 34.9524V18.102C42.9333 15.05 40.4507 12.5673 37.3968 12.5673L14.9333 12.6131V7.83439C14.9333 5.81186 16.5788 4.16639 18.5995 4.16639L50.4644 4.23173C50.4653 4.23173 50.4653 4.23173 50.4663 4.23173C52.4888 4.23173 54.1343 5.87719 54.1343 7.89972V27.6323H54.1333Z" fill="#FFCDA3"/>
</svg>
