<svg width="5" height="5" viewBox="0 0 5 5" fill="none" xmlns="http://www.w3.org/2000/svg">
<path d="M4.79874 3.33418L3.43497 2.49997L4.79869 1.66577C4.82215 1.65139 4.83896 1.62829 4.8454 1.60151C4.85183 1.57473 4.84737 1.5465 4.83305 1.52304L4.43231 0.867995C4.40247 0.819104 4.33848 0.803689 4.28958 0.833584L2.98779 1.62996V0.103802C2.98779 0.0465034 2.94128 0 2.88398 0H2.1162C2.0589 0 2.0124 0.0465034 2.0124 0.103802V1.62996L0.710548 0.833636C0.661553 0.803741 0.597714 0.819104 0.567818 0.868047L0.167086 1.52309C0.152761 1.54655 0.148297 1.57478 0.154733 1.60157C0.161169 1.62835 0.177985 1.65144 0.201444 1.66582L1.56521 2.49997L0.201444 3.33418C0.177985 3.34851 0.161169 3.37165 0.154733 3.39838C0.148297 3.42522 0.152761 3.45345 0.167086 3.47691L0.567818 4.1319C0.597714 4.18079 0.661553 4.19626 0.710548 4.16636L2.0124 3.36999V4.89615C2.0124 4.95344 2.0589 4.99995 2.1162 4.99995H2.88398C2.94128 4.99995 2.98779 4.95344 2.98779 4.89615V3.37004L4.28964 4.16631C4.33853 4.19621 4.40252 4.18079 4.43237 4.13195L4.8331 3.47691C4.84742 3.45345 4.85189 3.42522 4.84545 3.39843C4.83907 3.3716 4.8222 3.34856 4.79874 3.33418Z" fill="#EA7474"/>
</svg>
