<svg width="71" height="84" viewBox="0 0 71 84" fill="none" xmlns="http://www.w3.org/2000/svg">
<path d="M0 0V84H71V0H0ZM69.2402 82.251H1.75975V1.74903H69.2402V82.251ZM41.577 9.25819C41.577 10.2143 42.1401 10.774 43.3837 10.774H43.8295V7.81233H43.4071C42.187 7.81233 41.577 8.44198 41.577 9.25819ZM26.9828 7.6724C25.2231 7.6724 23.956 8.8151 23.956 10.8207C23.956 12.8262 25.2465 13.9689 26.9828 13.9689C28.6956 13.9689 29.9861 12.8262 29.9861 10.8207C29.9861 8.86174 28.7426 7.6724 26.9828 7.6724ZM59.7376 70.9173C59.7376 71.6635 60.3711 72.2465 61.2158 72.2465H62.0605V69.7279H61.2158C60.2538 69.7279 59.7376 70.241 59.7376 70.9173ZM67.4805 3.52138H3.5195V18.1899H67.457V3.52138H67.4805ZM12.459 15.3914L9.00991 11.427H8.96299V15.3914H6.87475V6.22654H8.96299V10.0278H8.98645L12.3417 6.24986H14.7819L10.7697 10.6341L15.0165 15.3914H12.459ZM30.8073 14.1555C29.8688 14.995 28.5783 15.5081 26.9828 15.5081C25.4812 15.5081 24.2611 15.1116 23.3695 14.3887C22.3136 13.5491 21.7505 12.3132 21.7505 10.8906C21.7505 9.53803 22.2667 8.32537 23.2052 7.46252C24.1203 6.62299 25.4342 6.10994 26.9828 6.10994C28.6487 6.10994 30.033 6.64631 30.9481 7.53248C31.7928 8.37201 32.2151 9.51471 32.2151 10.7973C32.2151 12.1033 31.7459 13.3159 30.8073 14.1555ZM46.3401 12.2199H45.9646V15.3914H43.8529V12.2199H43.4775C40.4508 12.2199 39.4653 10.3776 39.4653 9.18823C39.4653 7.22932 40.967 6.20322 43.196 6.20322H46.6216C48.8506 6.20322 50.3523 7.22932 50.3523 9.18823C50.3523 10.3776 49.3668 12.2199 46.3401 12.2199ZM63.3275 9.91116V11.4736H59.7141V13.8057H63.8672V15.3914H57.6024V6.22654H63.8672L63.304 7.78901H59.6907V9.93448H63.3275V9.91116ZM23.7683 70.5908L22.7125 73.3659H24.8007C24.8007 73.3659 23.8387 70.8706 23.7683 70.5908ZM46.4104 7.81233H45.9646V10.7973H46.4339C47.6775 10.7973 48.2406 10.2376 48.2406 9.28151C48.2406 8.44198 47.654 7.81233 46.4104 7.81233ZM67.4805 64.5974H43.3837V63.3848H67.4805V19.3792H3.54296V63.3848H34.0922L36.8374 64.5974H3.5195V80.4786H67.457V64.5974H67.4805ZM66.8705 62.7785H43.3837V62.6852C43.4541 62.5919 43.5479 62.4986 43.6183 62.382H48.1702C48.2406 62.382 48.311 62.312 48.311 62.2421C48.311 62.1721 48.2406 62.1022 48.1702 62.1022H43.8295C43.8999 62.0089 43.9937 61.8923 44.0641 61.7757H66.8705V62.7785ZM50.4931 48.8329C50.4227 49.0194 50.3288 49.2293 50.2584 49.4159H43.3602V48.8329H50.4931ZM43.3837 48.6463V48.0633H50.7981C50.7277 48.2499 50.6573 48.4597 50.5634 48.6463H43.3837ZM50.188 49.6024C50.1176 49.789 50.0238 49.9989 49.9534 50.1855H43.3837V49.6024H50.188ZM49.8596 50.3487C49.7657 50.5353 49.6953 50.7451 49.6015 50.9317H43.3602V50.3487H49.8596ZM49.5311 51.1183C49.4372 51.3048 49.3668 51.5147 49.273 51.7013H43.3837V51.1183H49.5311ZM49.1791 51.8878C49.0853 52.0744 48.9914 52.2843 48.8976 52.4708H43.3602V51.8878H49.1791ZM48.8272 52.6574C48.7333 52.844 48.6395 53.0539 48.5456 53.2404H43.3837V52.6574H48.8272ZM48.8272 54.7096V56.482H48.5456V54.7796C48.6395 54.7562 48.7333 54.7329 48.8272 54.7096ZM48.4518 53.427C48.3579 53.6135 48.264 53.8234 48.1467 54.01H43.3837V53.427H48.4518ZM48.0529 54.1966C47.959 54.3831 47.8417 54.593 47.7479 54.7796H43.3837V54.1966H48.0529ZM47.654 54.9428C47.5601 55.1294 47.4428 55.3393 47.3255 55.5258H43.3602V54.9428H47.654ZM47.2317 55.7124C47.1143 55.8989 47.0205 56.1088 46.9032 56.2954H43.3837V55.7124H47.2317ZM46.7859 56.482C46.6685 56.6685 46.5512 56.8784 46.4339 57.065H43.3602V56.482H46.7859ZM46.3401 57.2515C46.2227 57.4381 46.1054 57.648 45.9881 57.8345H43.3602V57.2515H46.3401ZM45.8708 58.0211C45.7535 58.2077 45.6362 58.4175 45.4954 58.6041H43.3602V58.0211H45.8708ZM45.4015 58.7673C45.2842 58.9539 45.1434 59.1638 45.0261 59.3504H43.3837V58.7673H45.4015ZM44.8853 59.5369C44.7445 59.7235 44.6272 59.9334 44.4865 60.1199H43.3837V59.5369H44.8853ZM44.3691 60.3065C44.2284 60.4931 44.0876 60.7029 43.9468 60.8895H43.3837V60.3065H44.3691ZM66.8705 61.5191H44.2753C44.3457 61.4259 44.4395 61.3093 44.5099 61.1927H50.0238C50.0942 61.1927 50.1646 61.1227 50.1646 61.0527C50.1646 60.9828 50.0942 60.9128 50.0238 60.9128H44.6976C44.768 60.8195 44.8384 60.7029 44.9088 60.6097H66.8705V61.5191ZM66.8705 60.3531H45.12C45.1903 60.2598 45.2607 60.1433 45.3311 60.05H51.807C51.8774 60.05 51.9478 59.98 51.9478 59.91C51.9478 59.8401 51.8774 59.7701 51.807 59.7701H45.5188C45.5892 59.6768 45.6596 59.5602 45.73 59.4436H66.8705V60.3531ZM66.8705 59.1638H45.8943C45.9646 59.0705 46.035 58.9539 46.1054 58.8373H53.731C53.8014 58.8373 53.8718 58.7673 53.8718 58.6974C53.8718 58.6274 53.8249 58.5575 53.731 58.5575H46.2931C46.3635 58.4642 46.4339 58.3476 46.4808 58.231H66.8705V59.1638ZM66.8705 57.9745H46.6451C46.7155 57.8812 46.7624 57.7646 46.8328 57.6713H55.303C55.3734 57.6713 55.4438 57.6013 55.4438 57.5314C55.4438 57.4614 55.3734 57.3914 55.303 57.3914H46.997C47.0674 57.2748 47.1378 57.1349 47.2317 57.0183H66.8705V57.9745ZM49.8126 56.482V54.4298C49.9065 54.4064 50.0003 54.3598 50.0942 54.3365V56.482H49.8126ZM51.0562 56.482V53.9634C51.15 53.9167 51.2439 53.8934 51.3377 53.8467V56.482H51.0562ZM52.3232 56.482V53.4037C52.4171 53.357 52.5109 53.3104 52.6048 53.2637V56.482H52.3232ZM53.5668 56.482V52.7507C53.6606 52.7041 53.7545 52.6341 53.8483 52.5874V56.482H53.5668ZM54.8338 56.482V51.9811C54.9276 51.9112 55.0215 51.8645 55.1153 51.7946V56.482H54.8338ZM56.1008 56.482V51.0949C56.1946 51.025 56.2885 50.955 56.3824 50.8851V56.5053H56.1008V56.482ZM57.3443 56.482V50.0455C57.4382 49.9522 57.5321 49.8823 57.6259 49.789V56.4586H57.3443V56.482ZM58.6114 56.482V48.8562C58.7052 48.7629 58.7991 48.6696 58.8929 48.5763V56.5053H58.6114V56.482ZM59.8549 56.482V47.457C59.9488 47.3404 60.0426 47.2238 60.1365 47.1305V56.5053H59.8549V56.482ZM61.1219 56.482V45.7779C61.2158 45.638 61.3097 45.4981 61.4035 45.3815V56.482H61.1219ZM62.3655 56.482V43.7723C62.4594 43.6091 62.5532 43.4225 62.6471 43.2593V56.482H62.3655ZM63.6325 56.482V41.1605C63.7264 40.9273 63.8202 40.6941 63.9141 40.4609V56.482H63.6325ZM66.1431 20.0089H66.4247V56.482H66.1431V20.0089ZM64.8995 20.0089H65.1811V31.809H64.8995V20.0089ZM64.8995 37.1727C65.0169 36.683 65.1107 36.1932 65.1811 35.7035V56.482H64.8995V37.1727ZM64.7822 32.6019C64.5007 42.4664 58.0482 51.025 49.0383 53.5902C49.1557 53.357 49.2495 53.1471 49.3668 52.9139C57.6728 50.0222 63.656 41.93 64.0783 32.6019H64.7822ZM63.6325 20.0089H63.9141V31.809H63.6325V20.0089ZM62.3655 20.0089H62.6471V31.809H62.3655V20.0089ZM61.1219 20.0089H61.4035V31.809H61.1219V20.0089ZM59.8549 20.0089H60.1365V31.809H59.8549V20.0089ZM58.6114 19.9856H58.8929V31.7857H58.6114V19.9856ZM57.3443 19.9856H57.6259V31.7857H57.3443V19.9856ZM56.1008 19.9856H56.3824V31.7857H56.1008V19.9856ZM63.8906 32.6019C63.8671 32.8817 63.8672 33.1383 63.8437 33.4181H56.2416V33.628H63.8202C63.0225 42.3498 57.3443 49.8123 49.5311 52.6341C50.1176 51.4214 50.6573 50.1388 51.197 48.8329C55.9835 46.734 59.151 42.3964 60.2538 36.3098L60.3242 35.9367C60.3242 35.9367 57.6494 35.9367 54.7634 35.9367C54.9511 34.8406 55.0919 33.7446 55.2092 32.6252H63.8906V32.6019ZM52.3232 47.5502V45.7079C52.4171 45.4281 52.5109 45.1483 52.6048 44.8451V47.387C52.5109 47.457 52.4171 47.5036 52.3232 47.5502ZM53.5668 46.734V41.4636C53.6606 41.0905 53.7545 40.7174 53.8483 40.3443V46.5242C53.7545 46.5941 53.6606 46.6641 53.5668 46.734ZM54.8338 45.6613V37.126H55.1153V45.3815C55.0215 45.4981 54.9276 45.568 54.8338 45.6613ZM56.1008 44.3087V37.1494H56.3824V43.9589C56.265 44.0755 56.1946 44.1921 56.1008 44.3087ZM57.3443 42.4664V37.1494H57.6259V41.9767C57.5321 42.1399 57.4382 42.3032 57.3443 42.4664ZM58.6114 39.8079V37.1494H58.8929V39.0383C58.7991 39.2948 58.7052 39.5514 58.6114 39.8079ZM54.8338 19.9856H55.1153V25.8856H54.8338V19.9856ZM53.5668 19.9856H53.8483V25.8856H53.5668V19.9856ZM52.3232 19.9856H52.6048V25.8856H52.3232V19.9856ZM51.0562 19.9856H51.3377V25.8856H51.0562V19.9856ZM49.8126 19.9856H50.0942V25.8856H49.8126V19.9856ZM48.5456 19.9856H48.8272V25.8856H48.5456V19.9856ZM47.3021 19.9856H47.5836V25.8856H47.3021V19.9856ZM46.035 19.9856H46.3166V25.8856H46.035V19.9856ZM44.768 19.9856H45.0496V25.8856H44.768V19.9856ZM43.5245 19.9856H43.806V25.8856H43.5245V19.9856ZM42.2574 19.9856H42.539V25.8856H42.2574V19.9856ZM41.0139 19.9856H41.2954V25.8856H41.0139V19.9856ZM39.7469 19.9856H40.0284V25.8856H39.7469V19.9856ZM38.5033 19.9856H38.7849V25.8856H38.5033V19.9856ZM36.462 21.4547C36.462 20.5686 37.0486 20.0089 37.0486 20.0089H38.0106C38.0106 20.0089 37.3301 20.7085 37.3301 21.4547C37.3301 22.201 37.8698 22.9006 37.8698 23.7401C37.8698 24.5564 37.4005 25.3259 36.9078 25.9089C36.9078 25.9089 36.11 25.9089 35.9223 25.9089C36.5793 25.3259 36.9782 24.4864 36.9782 23.7401C36.9782 22.9706 36.462 22.3176 36.462 21.4547ZM34.4676 21.4547C34.4676 20.5686 35.0542 20.0089 35.0542 20.0089H36.0162C36.0162 20.0089 35.3358 20.7085 35.3358 21.4547C35.3358 22.201 35.8754 22.9006 35.8754 23.7401C35.8754 24.5564 35.4061 25.3259 34.9134 25.9089C34.9134 25.9089 34.1157 25.9089 33.928 25.9089C34.5849 25.3259 34.9838 24.4864 34.9838 23.7401C34.9838 22.9706 34.4676 22.3176 34.4676 21.4547ZM32.4732 21.4547C32.4732 20.5686 33.0598 20.0089 33.0598 20.0089H34.0218C34.0218 20.0089 33.3414 20.7085 33.3414 21.4547C33.3414 22.201 33.881 22.9006 33.881 23.7401C33.881 24.5564 33.4118 25.3259 32.919 25.9089C32.919 25.9089 32.1213 25.9089 31.9336 25.9089C32.5905 25.3259 32.9894 24.4864 32.9894 23.7401C32.9894 22.9706 32.4732 22.3176 32.4732 21.4547ZM30.4788 21.4547C30.4788 20.5686 31.0654 20.0089 31.0654 20.0089H32.0274C32.0274 20.0089 31.347 20.7085 31.347 21.4547C31.347 22.201 31.8866 22.9006 31.8866 23.7401C31.8866 24.5564 31.4174 25.3259 30.9247 25.9089C30.9247 25.9089 30.1269 25.9089 29.9392 25.9089C30.5962 25.3259 30.995 24.4864 30.995 23.7401C30.995 22.9706 30.4788 22.3176 30.4788 21.4547ZM29.0007 23.7168C29.0007 22.9706 28.4845 22.3176 28.4845 21.4314C28.4845 20.5453 29.0711 19.9856 29.0711 19.9856H30.033C30.033 19.9856 29.3526 20.6852 29.3526 21.4314C29.3526 22.1777 29.8923 22.8773 29.8923 23.7168C29.8923 24.533 29.423 25.3026 28.9303 25.8856C28.9303 25.8856 28.1325 25.8856 27.9448 25.8856C28.5783 25.3026 29.0007 24.4631 29.0007 23.7168ZM27.1705 19.9856H27.4521V25.8856H27.1705V19.9856ZM25.927 19.9856H26.2085V25.8856H25.927V19.9856ZM24.6599 19.9856H24.9415V25.8856H24.6599V19.9856ZM23.4164 19.9856H23.698V25.8856H23.4164V19.9856ZM22.1494 19.9856H22.4309V25.8856H22.1494V19.9856ZM20.9058 19.9856H21.1874V25.8856H20.9058V19.9856ZM19.6388 19.9856H19.9204V25.8856H19.6388V19.9856ZM18.3718 19.9856H18.6533V25.8856H18.3718V19.9856ZM17.1282 19.9856H17.4098V25.8856H17.1282V19.9856ZM15.8612 19.9856H16.1428V25.8856H15.8612V19.9856ZM14.6176 19.9856H14.8992V25.8856H14.6176V19.9856ZM13.3506 19.9856H13.6322V25.8856H13.3506V19.9856ZM12.1071 19.9856H12.3886V25.8856H12.1071V19.9856ZM10.8401 19.9856H11.1216V25.8856H10.8401V19.9856ZM9.57303 19.9856H9.85459V25.8856H9.57303V19.9856ZM54.8572 26.7252C54.8572 26.8884 54.8572 27.0516 54.8572 27.2382H48.3579C48.311 27.2382 48.264 27.2848 48.264 27.3315C48.264 27.3781 48.311 27.4248 48.3579 27.4248H54.8572C54.8572 27.588 54.8572 27.7512 54.8572 27.9145H9.26801C9.26801 27.518 9.24455 27.1449 9.24455 26.7485C13.116 26.7252 51.0562 26.7018 54.8572 26.7252ZM8.32948 19.9856H8.61104V56.4586H8.32948V19.9856ZM7.06246 19.9856H7.34402V56.4586H7.06246V19.9856ZM5.8189 19.9856H6.10046V56.4586H5.8189V19.9856ZM4.55188 19.9856H4.83344V56.4586H4.55188V19.9856ZM4.15301 57.0183H16.8936C17.0813 57.3448 17.269 57.6713 17.4802 57.9978H4.15301V57.0183ZM9.57303 56.482V37.1027C9.66689 37.5691 9.76074 38.0589 9.85459 38.5253V56.482H9.57303ZM10.8401 56.482V42.583C10.9339 42.9095 11.0278 43.236 11.1216 43.5391V56.4586H10.8401V56.482ZM12.1071 56.482V46.5941C12.2009 46.8506 12.2948 47.1072 12.3886 47.3637V56.482H12.1071ZM13.3506 56.482V49.8823C13.4445 50.0922 13.5383 50.3254 13.6322 50.5353V56.5053H13.3506V56.482ZM14.6176 56.482V52.6807C14.7115 52.8673 14.8054 53.0539 14.8992 53.2404V56.4586H14.6176V56.482ZM15.8612 56.482V55.176C15.9551 55.3393 16.0489 55.5258 16.1428 55.6891V56.482H15.8612ZM4.15301 58.2543H17.6444C17.8321 58.5575 18.0198 58.8606 18.231 59.1638H4.15301V58.2543ZM4.15301 59.4436H18.4187C18.6299 59.7468 18.8176 60.05 19.0287 60.3531H4.15301V59.4436ZM4.15301 60.6097H19.2165C19.4276 60.9128 19.6388 61.216 19.8734 61.5191H4.15301V60.6097ZM4.15301 62.7785V61.799H20.0611C20.3192 62.1488 20.5773 62.4753 20.8354 62.7785H4.15301ZM21.3985 62.4986C21.2343 62.2887 21.0466 62.0555 20.8824 61.8456H21.3985V62.4986ZM21.3985 61.6591H20.7416C20.6008 61.4725 20.46 61.2859 20.2958 61.0761H21.3985V61.6591ZM21.3985 60.8895H20.1785C20.0377 60.7029 19.8969 60.4931 19.7561 60.3065H21.3985V60.8895ZM21.3985 60.1199H19.6153C19.4746 59.9334 19.3572 59.7235 19.2165 59.5369H21.3985V60.1199ZM21.3985 59.3504H19.0991C18.9818 59.1638 18.841 58.9539 18.7237 58.7673H21.3985V59.3504ZM21.3985 58.6041H18.6064C18.4891 58.4175 18.3718 58.2077 18.231 58.0211H21.3985V58.6041ZM21.3985 57.8345H18.1137C17.9964 57.648 17.879 57.4381 17.7617 57.2515H21.3985V57.8345ZM21.3985 57.065H17.6679C17.5506 56.8784 17.4332 56.6685 17.3159 56.482H21.3985V57.065ZM33.9749 62.7318H21.8913V37.0561H33.928C33.9983 37.0561 34.0687 37.126 34.0687 37.196C34.0687 37.266 33.9983 37.3359 33.928 37.3359C33.928 37.3359 22.4544 37.3359 22.1728 37.3359V62.4753C22.4544 62.4753 33.9749 62.4753 33.9749 62.4753C34.0453 62.4753 34.1157 62.5452 34.1157 62.6152C34.1157 62.6619 34.0453 62.7318 33.9749 62.7318ZM33.9045 38.7818H22.6421C22.5717 38.7818 22.5248 38.7351 22.5248 38.6652C22.5248 38.5952 22.5717 38.5486 22.6421 38.5486H33.9045C33.9749 38.5486 34.0218 38.5952 34.0218 38.6652C34.0453 38.7351 33.9749 38.7818 33.9045 38.7818ZM34.0218 39.9711C34.0218 40.0411 33.9749 40.0877 33.9045 40.0877H23.2052C23.1348 40.0877 23.0879 40.0411 23.0879 39.9711C23.0879 39.9012 23.1348 39.8545 23.2052 39.8545H33.9045C33.9749 39.8545 34.0218 39.9012 34.0218 39.9711ZM22.6421 60.9828H33.9514C34.0218 60.9828 34.0922 61.0294 34.0922 61.0994C34.0922 61.1693 34.0453 61.216 33.9514 61.216H22.6421C22.5717 61.216 22.5248 61.1693 22.5248 61.0994C22.5248 61.0527 22.5717 60.9828 22.6421 60.9828ZM33.9749 59.9334H23.2052C23.1348 59.9334 23.0879 59.8867 23.0879 59.8168C23.0879 59.7468 23.1348 59.7002 23.2052 59.7002H33.9749C34.0453 59.7002 34.0922 59.7468 34.0922 59.8168C34.0922 59.8634 34.0453 59.9334 33.9749 59.9334ZM16.659 76.9339H14.6646V72.1066C14.6646 71.7801 14.6646 71.477 14.688 71.1738H14.6646C14.5707 71.407 14.2188 71.8501 14.0545 72.0833L12.2713 74.5552H11.3562L9.36186 72.0133C9.17416 71.7801 8.93952 71.5003 8.75182 71.1738H8.72835C8.75182 71.5003 8.75182 71.8034 8.75182 72.06V76.9339H6.75744V68.2121H8.58757L11.1216 71.477C11.4032 71.8501 11.6143 72.1299 11.8255 72.4564H11.849C12.0132 72.1533 12.2244 71.8268 12.5059 71.4303L14.8054 68.2121H16.659V76.9339ZM26.3493 76.9339L25.4108 74.8118H22.1494L21.2578 76.9339H19.2868L23.041 68.1888H24.5661L28.4845 76.9339H26.3493ZM39.7703 76.9339H37.7759V73.2726H33.3414V76.9339H31.347V68.2121H33.3414V71.7102H37.7759V68.2121H39.7703V76.9339ZM41.8586 66.2765C41.272 66.02 34.6553 63.1283 34.3972 63.0117V36.4031C34.6553 36.2865 41.272 33.2549 41.8586 32.9983V66.2765ZM34.1157 36.0533H21.3985V56.2954H17.2221C17.1048 56.1088 17.0109 55.8989 16.8936 55.7124H19.6623C19.7092 55.7124 19.7561 55.6657 19.7561 55.6191C19.7561 55.5725 19.7092 55.5258 19.6623 55.5258H16.7763C16.659 55.3393 16.5651 55.1294 16.4478 54.9428H18.1841C18.231 54.9428 18.2779 54.8962 18.2779 54.8495C18.2779 54.8029 18.231 54.7562 18.1841 54.7562H16.3539C16.2601 54.5697 16.1428 54.3598 16.0489 54.1732H16.9405C16.9874 54.1732 17.0344 54.1266 17.0344 54.08C17.0344 54.0333 16.9874 53.9867 16.9405 53.9867H15.9551C12.4121 47.0838 9.5965 38.1988 9.26801 28.3343H10.3004C10.4412 32.5786 11.0512 36.8695 12.1305 41.0905C12.4825 42.4431 12.8814 43.819 13.3272 45.1483C14.1249 47.5269 15.0634 49.859 16.1193 52.0977L16.3305 52.0044C15.2746 49.7657 14.3361 47.4336 13.5383 45.0783C13.0925 43.749 12.6937 42.3964 12.3417 41.0439C11.2624 36.8462 10.6523 32.5786 10.5116 28.3576H54.8103C54.8103 28.4975 54.8103 28.6374 54.7868 28.754H48.3814C48.3344 28.754 48.2875 28.8007 48.2875 28.8473C48.2875 28.8939 48.3344 28.9406 48.3814 28.9406H54.7634C54.7634 29.1271 54.7399 29.337 54.7399 29.5236H48.4518C48.4048 29.5236 48.3579 29.5702 48.3579 29.6169C48.3579 29.6635 48.4048 29.7102 48.4518 29.7102H54.7399C54.7399 29.8967 54.7165 30.1066 54.693 30.2932H48.4518C48.4048 30.2932 48.3579 30.3398 48.3579 30.3865C48.3579 30.4331 48.4048 30.4797 48.4518 30.4797H54.693C54.6695 30.6663 54.6695 30.8762 54.6461 31.0627H48.4518C48.4048 31.0627 48.3579 31.1094 48.3579 31.156C48.3579 31.2027 48.4048 31.2493 48.4518 31.2493H54.6695C54.6461 31.4359 54.6461 31.6458 54.6226 31.8323H48.4987C48.4518 31.8323 48.4048 31.879 48.4048 31.9256C48.4048 31.9722 48.4518 32.0189 48.4987 32.0189H54.5991C54.5757 32.2054 54.5522 32.4153 54.5522 32.6019H48.3579C48.311 32.6019 48.264 32.6485 48.264 32.6952C48.264 32.7418 48.311 32.7885 48.3579 32.7885H54.5287C54.5053 32.975 54.4818 33.1849 54.4584 33.3715H48.3579C48.311 33.3715 48.264 33.4181 48.264 33.4647C48.264 33.5114 48.311 33.558 48.3579 33.558H54.4349C54.4114 33.7446 54.388 33.9545 54.3645 34.141H48.2406C48.1937 34.141 48.1467 34.1877 48.1467 34.2343C48.1467 34.281 48.1937 34.3276 48.2406 34.3276H54.341C54.3176 34.5142 54.2941 34.724 54.2707 34.9106H48.2406C48.1937 34.9106 48.1467 34.9572 48.1467 35.0039C48.1467 35.0505 48.1937 35.0972 48.2406 35.0972H54.2472C54.2237 35.2837 54.2003 35.4936 54.1533 35.6802H48.2406C48.1937 35.6802 48.1467 35.7268 48.1467 35.7735C48.1467 35.8201 48.1937 35.8667 48.2406 35.8667H54.1299C54.1064 36.0533 54.0595 36.2632 54.036 36.4497H48.0529C48.0059 36.4497 47.959 36.4964 47.959 36.543C47.959 36.5897 48.0059 36.6363 48.0529 36.6363H54.0126C53.9891 36.8229 53.9422 37.0328 53.9187 37.2193H47.7948C47.7479 37.2193 47.7009 37.266 47.7009 37.3126C47.7009 37.3592 47.7479 37.4059 47.7948 37.4059H53.8718C53.8249 37.5924 53.8014 37.8023 53.7545 37.9889H47.7244C47.6775 37.9889 47.6305 38.0355 47.6305 38.0822C47.6305 38.1288 47.6775 38.1755 47.7244 38.1755H53.7075C53.6606 38.362 53.6371 38.5719 53.5902 38.7585H47.5132C47.4663 38.7585 47.4194 38.8051 47.4194 38.8517C47.4194 38.8984 47.4663 38.945 47.5132 38.945H53.5433C53.4964 39.1316 53.4494 39.3415 53.426 39.528H47.3255C47.2786 39.528 47.2317 39.5747 47.2317 39.6213C47.2317 39.668 47.2786 39.7146 47.3255 39.7146H53.379C53.3321 39.9012 53.2852 40.111 53.2383 40.2976H47.1143C47.0674 40.2976 47.0205 40.3442 47.0205 40.3909C47.0205 40.4375 47.0674 40.4842 47.1143 40.4842H53.1913C53.1444 40.6707 53.0975 40.8806 53.0506 41.0672H46.7859C46.7389 41.0672 46.692 41.1138 46.692 41.1605C46.692 41.2071 46.7389 41.2537 46.7859 41.2537H53.0036C52.9567 41.4403 52.9098 41.6502 52.8629 41.8368H46.5982C46.5512 41.8368 46.5043 41.8834 46.5043 41.93C46.5043 41.9767 46.5512 42.0233 46.5982 42.0233H52.7925C52.7455 42.2099 52.6986 42.4198 52.6282 42.6063H46.2462C46.1993 42.6063 46.1523 42.653 46.1523 42.6996C46.1523 42.7463 46.1993 42.7929 46.2462 42.7929H52.5813C52.5344 42.9795 52.464 43.1893 52.417 43.3759H45.8473C45.8004 43.3759 45.7535 43.4225 45.7535 43.4692C45.7535 43.5158 45.8004 43.5625 45.8473 43.5625H52.3701C52.3232 43.749 52.2528 43.9589 52.1824 44.1455H45.5892C45.5423 44.1455 45.4954 44.1921 45.4954 44.2388C45.4954 44.2854 45.5423 44.332 45.5892 44.332H52.1355C52.0651 44.5186 52.0182 44.7285 51.9478 44.915H45.1903C45.1434 44.915 45.0965 44.9617 45.0965 45.0083C45.0965 45.055 45.1434 45.1016 45.1903 45.1016H51.9009C51.8305 45.2882 51.7835 45.4981 51.7132 45.6846H44.8149C44.768 45.6846 44.7211 45.7313 44.7211 45.7779C44.7211 45.8245 44.768 45.8712 44.8149 45.8712H51.6193C51.5489 46.0577 51.4785 46.2676 51.4081 46.4542H44.2987C44.2518 46.4542 44.2049 46.5008 44.2049 46.5475C44.2049 46.5941 44.2518 46.6408 44.2987 46.6408H51.3377C51.2673 46.8273 51.197 47.0372 51.1266 47.2238H43.8295C43.7826 47.2238 43.7356 47.2704 43.7356 47.317C43.7356 47.3637 43.7826 47.4103 43.8295 47.4103H51.0562C50.9858 47.5969 50.9154 47.8068 50.845 47.9933H43.3602V32.4386H42.3044L41.9759 32.5786L34.1157 36.0533ZM43.0083 66.2299H42.2809C42.234 66.2299 42.187 66.1832 42.187 66.1366C42.187 66.09 42.234 66.0433 42.2809 66.0433C42.2809 66.0433 42.6563 66.0433 42.7971 66.0433C42.7971 65.8568 42.7971 32.6952 42.7971 32.6952C42.7971 32.6485 42.844 32.6019 42.8909 32.6019C42.9379 32.6019 42.9848 32.6485 42.9848 32.6952V66.2299H43.0083ZM43.3837 61.0761H43.8295C43.6887 61.2626 43.5479 61.4725 43.3837 61.6591V61.0761ZM52.8863 76.9339H50.9154V72.1532C50.9154 71.7568 50.9154 71.2204 50.9389 70.9406H50.9154C50.6104 71.3137 50.3523 71.6635 50.0003 72.0833L45.8239 76.9339H43.9703V68.2121H45.9646V72.6663C45.9646 73.0394 45.9646 73.5991 45.9412 74.0189H45.9646C46.2227 73.6691 46.5043 73.3193 46.8797 72.8762L50.9154 68.2121H52.9332V76.9339H52.8863ZM64.0549 76.9339H62.0605V73.5758H61.3096C60.9577 73.6924 60.3711 74.6718 58.9164 76.9339H56.6404C58.0952 74.7185 59.0102 73.2493 59.503 72.9928C58.6114 72.643 57.7432 71.8734 57.7432 70.7307C57.7432 69.3781 58.6818 68.2354 61.2393 68.2354H64.0549V76.9339Z" fill="#B51B1C"/>
</svg>
