<svg width="43" height="43" viewBox="0 0 43 43" fill="none" xmlns="http://www.w3.org/2000/svg">
<path d="M36.7029 6.29715C32.642 2.23642 27.2429 0 21.5 0C15.7571 0 10.358 2.23642 6.29715 6.29715C2.23634 10.3579 0 15.7571 0 21.5C0 27.2429 2.23642 32.642 6.29715 36.7029C10.3579 40.7637 15.7571 43 21.5 43C27.2429 43 32.642 40.7636 36.7029 36.7029C40.7637 32.6421 43 27.2429 43 21.5C43 15.7571 40.7636 10.358 36.7029 6.29715ZM21.5 41.7402C10.3395 41.7402 1.25977 32.6605 1.25977 21.5C1.25977 10.3395 10.3395 1.25977 21.5 1.25977C32.6605 1.25977 41.7402 10.3395 41.7402 21.5C41.7402 32.6605 32.6605 41.7402 21.5 41.7402Z" fill="#99E7B7"/>
<path d="M34.8438 11.8603C34.7357 11.7108 34.5674 11.6163 34.3836 11.6016C34.2002 11.587 34.0185 11.6536 33.8881 11.7841L11.7842 33.8878C11.6538 34.0184 11.587 34.1994 11.6017 34.3833C11.6164 34.5672 11.7111 34.7355 11.8605 34.8436C14.6727 36.8774 18.0065 37.9526 21.5011 37.9528C25.9026 37.9528 30.0355 36.2433 33.1395 33.1394C35.9196 30.3592 37.6125 26.6663 37.9066 22.7407C38.1973 18.8574 37.1096 14.9934 34.8438 11.8603ZM32.2487 32.2486C29.3826 35.1148 25.5657 36.6932 21.5012 36.693C18.5233 36.6928 15.6726 35.8481 13.2105 34.2431L34.2434 13.2101C38.1698 19.2214 37.3808 27.1166 32.2487 32.2486Z" fill="#99E7B7"/>
<path d="M31.3983 8.61655C31.3836 8.43271 31.2889 8.26441 31.1395 8.15632C28.1864 6.02051 24.5411 4.92116 20.8727 5.05948C17.1855 5.19898 13.6167 6.58842 10.8236 8.97189C10.559 9.19764 10.5275 9.59531 10.7533 9.85986C10.979 10.1245 11.3766 10.1559 11.6413 9.93015C16.8007 5.52753 24.1613 5.08375 29.7896 8.75664L8.75665 29.7897C5.0836 24.1613 5.52745 16.8006 9.93008 11.6414C10.1558 11.3769 10.1244 10.9792 9.85979 10.7535C9.59524 10.5277 9.19757 10.5592 8.97182 10.8237C6.58834 13.6167 5.19891 17.1856 5.05941 20.8727C4.92075 24.5403 6.02053 28.1865 8.15633 31.1396C8.26442 31.2891 8.43273 31.3836 8.61657 31.3983C8.63336 31.3997 8.64999 31.4003 8.66679 31.4003C8.83308 31.4003 8.99357 31.3343 9.11216 31.2158L31.2158 9.11206C31.3462 8.98155 31.413 8.80048 31.3983 8.61655Z" fill="#99E7B7"/>
</svg>
